<?xml version="1.0" encoding="UTF-8" standalone="no"?>
<!-- Created with Inkscape (http://www.inkscape.org/) -->

<svg
   width="960"
   height="250"
   viewBox="0 0 254.00001 66.145833"
   version="1.1"
   id="svg1"
   sodipodi:docname="banner.svg"
   inkscape:version="1.4 (86a8ad7, 2024-10-11)"
   xmlns:inkscape="http://www.inkscape.org/namespaces/inkscape"
   xmlns:sodipodi="http://sodipodi.sourceforge.net/DTD/sodipodi-0.dtd"
   xmlns="http://www.w3.org/2000/svg"
   xmlns:svg="http://www.w3.org/2000/svg">
  <sodipodi:namedview
     id="namedview1"
     pagecolor="#ffffff"
     bordercolor="#000000"
     borderopacity="0.25"
     inkscape:showpageshadow="2"
     inkscape:pageopacity="0.0"
     inkscape:pagecheckerboard="0"
     inkscape:deskcolor="#d1d1d1"
     inkscape:zoom="0.921875"
     inkscape:cx="415.45763"
     inkscape:cy="160"
     inkscape:window-width="1920"
     inkscape:window-height="1009"
     inkscape:window-x="1912"
     inkscape:window-y="-8"
     inkscape:window-maximized="1"
     inkscape:current-layer="svg1" />
  <g
     id="text1"
     style="font-size:44.6852px;font-family:'Franklin Gothic Heavy';-inkscape-font-specification:'Franklin Gothic Heavy, ';letter-spacing:-2.08531px;word-spacing:0.223426px;fill:#999999;stroke-width:1.40741;paint-order:markers stroke fill"
     aria-label="dpHelper"
     transform="translate(56.82712,0.57401131)">
    <path
       style="fill:#000000"
       d="m 31.018684,46.221684 h -8.160286 v -2.945558 q -1.810972,3.403755 -5.978391,3.403755 -3.840134,0 -6.240218,-2.989195 -2.3782651,-3.011015 -2.3782651,-8.727578 0,-5.345642 2.4000841,-8.48757 2.400084,-3.141928 6.349313,-3.141928 3.294661,0 5.432917,2.509179 v -9.403966 h 8.574846 z M 22.443838,31.952093 q 0,-2.989195 -2.46554,-2.989195 -1.723697,0 -2.269171,1.898248 -0.523654,1.898248 -0.523654,4.647435 0,5.38928 2.749187,5.38928 1.047309,0 1.767334,-0.850939 0.741844,-0.850939 0.741844,-2.596454 z M 42.221112,53.225565 H 33.515353 V 24.031816 h 8.007553 v 3.141928 q 1.680059,-3.600126 6.262037,-3.600126 3.971048,0 6.2184,3.098291 2.247351,3.076471 2.247351,8.400294 0,5.323822 -2.312808,8.46575 -2.29099,3.141928 -6.065667,3.141928 -3.709221,0 -5.651107,-2.836463 z m 0,-15.120529 q 0,1.483688 0.676387,2.312808 0.676388,0.807301 1.680059,0.807301 1.570964,0 2.160076,-1.44005 0.589111,-1.46187 0.589111,-4.472884 0,-3.469212 -0.676387,-4.865625 -0.676387,-1.418231 -2.029162,-1.418231 -0.807301,0 -1.614602,0.632749 -0.785482,0.63275 -0.785482,2.0728 z"
       id="path3" />
    <path
       d="m 83.206402,16.438823 v 29.782861 h -9.142138 v -11.58586 h -6.982062 v 11.58586 H 57.940064 V 16.438823 h 9.142138 v 10.953111 h 6.982062 V 16.438823 Z m 17.442648,21.818946 8.11665,0.545473 q -0.72003,3.272842 -3.6874,5.58565 -2.94556,2.290989 -7.985739,2.290989 -5.607469,0 -8.945767,-3.229204 -3.338299,-3.251022 -3.338299,-8.05119 0,-4.97472 3.294661,-8.400294 3.29466,-3.425575 8.793035,-3.425575 5.323819,0 8.596669,3.229204 3.29466,3.229204 3.29466,8.793035 0,0.458198 -0.0218,1.265499 H 93.906995 q 0.04364,2.094619 0.741844,3.120109 0.698207,1.003672 2.661912,1.003672 2.836459,0 3.338299,-2.727368 z m -0.56729,-5.760202 q -0.0218,-2.247351 -0.916399,-3.011014 -0.872758,-0.785482 -2.181895,-0.785482 -3.09829,0 -3.09829,3.796496 z M 118.6808,16.438823 v 29.782861 h -8.57484 V 16.438823 Z m 11.20243,36.786742 h -8.70575 V 24.031816 h 8.00755 v 3.141928 q 1.68006,-3.600126 6.26204,-3.600126 3.97104,0 6.2184,3.098291 2.24735,3.076471 2.24735,8.400294 0,5.323822 -2.31281,8.46575 -2.29099,3.141928 -6.06567,3.141928 -3.70922,0 -5.65111,-2.836463 z m 0,-15.120529 q 0,1.483688 0.67639,2.312808 0.67639,0.807301 1.68006,0.807301 1.57097,0 2.16008,-1.44005 0.58911,-1.46187 0.58911,-4.472884 0,-3.469212 -0.67639,-4.865625 -0.67639,-1.418231 -2.02916,-1.418231 -0.8073,0 -1.6146,0.632749 -0.78549,0.63275 -0.78549,2.0728 z m 30.07582,0.152733 8.11664,0.545473 q -0.72002,3.272842 -3.6874,5.58565 -2.94555,2.290989 -7.98573,2.290989 -5.60747,0 -8.94577,-3.229204 -3.3383,-3.251022 -3.3383,-8.05119 0,-4.97472 3.29466,-8.400294 3.29466,-3.425575 8.79304,-3.425575 5.32382,0 8.59666,3.229204 3.29466,3.229204 3.29466,8.793035 0,0.458198 -0.0218,1.265499 h -14.8587 q 0.0436,2.094619 0.74185,3.120109 0.6982,1.003672 2.66191,1.003672 2.83646,0 3.3383,-2.727368 z m -0.5673,-5.760202 q -0.0218,-2.247351 -0.91639,-3.011014 -0.87276,-0.785482 -2.1819,-0.785482 -3.09829,0 -3.09829,3.796496 z m 18.35905,13.724117 h -8.33484 V 24.031816 h 7.24389 v 4.581979 q 1.24368,-4.996539 5.78202,-4.996539 0.4582,0 1.2655,0.08728 v 7.745726 q -0.91639,-0.21819 -1.63642,-0.21819 -4.32015,0 -4.32015,4.821987 z"
       id="path4" />
  </g>
  <defs
     id="defs1" />
  <g
     id="g1"
     transform="matrix(1.8468209,0,0,1.8468209,-257.86067,48.188309)">
    <path
       d="m 163.51564,-24.077084 c -0.63409,2.763677 -0.92996,5.892998 0.61267,8.424351 1.28675,2.111792 3.3303,3.747973 4.13753,6.1493776 0.9329,2.5936802 0.86684,5.4533127 0.36942,8.1317678 -0.56996,3.015433 -2.39049,5.8501964 -5.14816,7.2907835 -2.60666,1.389709 -5.68959,1.7979408 -8.59789,1.398427 -4.41841,-0.7052172 -8.05878,-4.1306413 -9.6343,-8.23506204 -2.58514,-6.56979536 -0.2292,-14.57733086 5.21483,-18.98044486 3.62544,-2.997182 8.41505,-4.189456 13.0459,-4.1792 z"
       style="fill:#0093dd;fill-opacity:1;fill-rule:evenodd;stroke:none;stroke-width:0.343859"
       id="path1" />
    <path
       d="m 156.03591,-16.453846 c 0.13056,2.512353 0.68398,5.174508 2.43491,7.0837357 1.3464,1.5269401 3.2972,2.2463408 4.96666,3.3304046 1.04799,0.6636113 1.82977,1.7603269 1.95782,3.0110293 0.20988,2.35482765 -0.1825,4.9249214 -1.74913,6.7827252 -1.61294,1.9075478 -4.22571,2.6052803 -6.64372,2.5223792 -2.93311,-0.077786 -5.58402,-2.0274778 -6.90369,-4.589528 -1.14058,-2.09468545 -1.35239,-4.5663561 -1.01126,-6.8955709 0.59497,-4.4834476 2.99518,-8.8888301 6.94841,-11.2451751 z"
       style="fill:#ffffff;fill-opacity:1;fill-rule:evenodd;stroke:none;stroke-width:0.343859"
       id="path2" />
  </g>
  <path
     d="m 192.1924,59.68997 v -7.418655 h 2.86963 q 1.86961,0 2.79898,1.108722 0.92937,1.108722 0.92937,2.565279 0,1.663083 -1.00002,2.706586 -0.99459,1.038068 -2.58702,1.038068 z m 2.27722,-1.706562 h 0.59241 q 0.56523,0 0.95111,-0.548926 0.39131,-0.548927 0.39131,-1.494601 0,-0.809802 -0.34783,-1.396773 -0.3424,-0.58697 -0.99459,-0.58697 h -0.59241 z m 10.34496,-0.06522 v 1.771781 h -5.58166 v -7.418655 h 5.58166 v 1.711997 h -3.34791 v 1.076113 h 2.70659 v 1.646778 h -2.70659 v 1.211986 z m 6.80139,-5.646874 -2.3044,7.418655 h -2.32071 l -2.40223,-7.418655 h 2.40223 l 1.16851,4.043575 q 0.11956,0.358704 0.21196,0.706538 l 1.3696,-4.750113 z m 3.53501,1.777216 v 5.641439 h -2.15766 v -5.641438 h -1.53808 v -1.777216 h 5.23382 v 1.777216 z m 4.872,5.755572 q -1.56526,0 -2.55441,-1.038068 -0.98372,-1.038068 -0.98372,-2.77724 0,-1.663083 0.94024,-2.744631 0.94567,-1.086982 2.61963,-1.086982 1.54895,0 2.5218,1.021763 0.97828,1.021764 0.97828,2.728326 0,1.766347 -0.98372,2.83159 -0.98372,1.065242 -2.5381,1.065242 z m -0.0109,-1.684822 q 0.5761,0 0.8261,-0.500012 0.25544,-0.505447 0.25544,-1.842436 0,-1.934828 -1.03806,-1.934828 -1.1196,0 -1.1196,2.206574 0,2.070702 1.07612,2.070702 z m 7.18183,1.684822 q -1.56525,0 -2.55441,-1.038068 -0.98372,-1.038068 -0.98372,-2.77724 0,-1.663083 0.94024,-2.744631 0.94568,-1.086982 2.61963,-1.086982 1.54895,0 2.5218,1.021763 0.97829,1.021764 0.97829,2.728326 0,1.766347 -0.98372,2.83159 -0.98372,1.065242 -2.53811,1.065242 z m -0.0109,-1.684822 q 0.5761,0 0.82611,-0.500012 0.25544,-0.505447 0.25544,-1.842436 0,-1.934828 -1.03807,-1.934828 -1.11959,0 -1.11959,2.206574 0,2.070702 1.07611,2.070702 z m 9.17645,-0.250006 v 1.820695 h -5.20121 v -7.418655 h 2.27723 v 5.59796 z m -0.49226,-0.326095 2.11418,-0.380444 q 0.26631,0.896761 1.3696,0.896761 0.85872,0 0.85872,-0.456533 0,-0.239136 -0.2011,-0.369574 -0.19565,-0.135873 -0.70653,-0.239136 -1.95114,-0.375009 -2.5055,-0.978284 -0.55436,-0.603276 -0.55436,-1.418513 0,-1.048938 0.7935,-1.744606 0.79893,-0.695669 2.29353,-0.695669 2.26636,0 2.99464,1.820695 l -1.88592,0.570666 q -0.29348,-0.744583 -1.19024,-0.744583 -0.74459,0 -0.74459,0.461968 0,0.206526 0.16849,0.32066 0.16848,0.114133 0.65219,0.217396 1.33155,0.282616 1.89135,0.500012 0.55979,0.217397 0.9348,0.744583 0.37501,0.521752 0.37501,1.233725 0,1.125027 -0.91307,1.826131 -0.91306,0.695668 -2.39679,0.695668 -2.71202,0 -3.34791,-2.260923 z"
     id="text3"
     style="-inkscape-font-specification:'Franklin Gothic Heavy, ';fill:#cccccc;stroke-width:0.350574;paint-order:markers stroke fill"
     aria-label="DEVTOOLS" />
</svg>
