<?xml version="1.0" encoding="UTF-8" standalone="no"?>
<!-- Created with Inkscape (http://www.inkscape.org/) -->

<svg
   width="81.50103mm"
   height="30.246874mm"
   viewBox="0 0 81.50103 30.246874"
   version="1.1"
   id="svg1"
   xml:space="preserve"
   inkscape:version="1.4 (86a8ad7, 2024-10-11)"
   sodipodi:docname="powered.svg"
   xmlns:inkscape="http://www.inkscape.org/namespaces/inkscape"
   xmlns:sodipodi="http://sodipodi.sourceforge.net/DTD/sodipodi-0.dtd"
   xmlns="http://www.w3.org/2000/svg"
   xmlns:svg="http://www.w3.org/2000/svg"><sodipodi:namedview
     id="namedview1"
     pagecolor="#ffffff"
     bordercolor="#000000"
     borderopacity="0.25"
     inkscape:showpageshadow="2"
     inkscape:pageopacity="0.0"
     inkscape:pagecheckerboard="0"
     inkscape:deskcolor="#d1d1d1"
     inkscape:document-units="mm"
     inkscape:zoom="1.4378367"
     inkscape:cx="123.44935"
     inkscape:cy="149.18245"
     inkscape:window-width="1920"
     inkscape:window-height="1009"
     inkscape:window-x="1912"
     inkscape:window-y="-8"
     inkscape:window-maximized="1"
     inkscape:current-layer="layer1" /><defs
     id="defs1" /><g
     inkscape:label="Layer 1"
     inkscape:groupmode="layer"
     id="layer1"
     transform="translate(-70.301835,-44.645056)"><path
       style="color:#000000;font-style:normal;font-variant:normal;font-weight:normal;font-stretch:normal;font-size:medium;line-height:normal;font-family:Montserrat;-inkscape-font-specification:'Montserrat, Bold';font-variant-ligatures:normal;font-variant-position:normal;font-variant-caps:normal;font-variant-numeric:normal;font-variant-alternates:normal;font-variant-east-asian:normal;font-feature-settings:normal;font-variation-settings:normal;text-indent:0;text-align:start;text-decoration-line:none;text-decoration-style:solid;text-decoration-color:#000000;letter-spacing:-0.79375px;word-spacing:0px;text-transform:none;writing-mode:lr-tb;direction:ltr;text-orientation:mixed;dominant-baseline:auto;baseline-shift:baseline;text-anchor:start;white-space:normal;shape-padding:0;shape-margin:0;inline-size:0;clip-rule:nonzero;display:inline;overflow:visible;visibility:visible;isolation:auto;mix-blend-mode:normal;color-interpolation:sRGB;color-interpolation-filters:linearRGB;solid-color:#000000;solid-opacity:1;vector-effect:none;fill:#999999;fill-opacity:1;fill-rule:nonzero;stroke:none;stroke-width:0.751001;stroke-linecap:butt;stroke-linejoin:miter;stroke-miterlimit:4;stroke-dasharray:none;stroke-dashoffset:0;stroke-opacity:1;-inkscape-stroke:none;paint-order:markers stroke fill;color-rendering:auto;image-rendering:auto;shape-rendering:auto;text-rendering:auto;enable-background:accumulate;stop-color:#000000"
       d="m 96.688572,53.760242 v 10.644955 h -2.137599 v -0.88947 q -0.832085,1.004241 -2.410178,1.004241 -1.090319,0 -1.97979,-0.487775 -0.875124,-0.487774 -1.377245,-1.391591 -0.50212,-0.903817 -0.50212,-2.09456 0,-1.190743 0.50212,-2.094559 0.502121,-0.903817 1.377245,-1.391592 0.889471,-0.487774 1.97979,-0.487774 1.477668,0 2.309754,0.93251 v -3.744385 z m -4.160427,8.923399 q 0.846431,0 1.405937,-0.573852 0.559506,-0.588198 0.559506,-1.563747 0,-0.975548 -0.559506,-1.5494 -0.559506,-0.588198 -1.405937,-0.588198 -0.860778,0 -1.420284,0.588198 -0.559506,0.573852 -0.559506,1.5494 0,0.975549 0.559506,1.563747 0.559506,0.573852 1.420284,0.573852 z m 9.994655,-6.111524 q 1.07598,0 1.9511,0.502121 0.88947,0.487774 1.39159,1.391591 0.50212,0.88947 0.50212,2.080213 0,1.190743 -0.50212,2.09456 -0.50212,0.889471 -1.39159,1.391591 -0.87512,0.487775 -1.9511,0.487775 -1.47766,0 -2.3241,-0.93251 v 3.600921 H 97.960681 V 56.686888 h 2.137599 v 0.88947 q 0.83208,-1.004241 2.42452,-1.004241 z m -0.38735,6.111524 q 0.86078,0 1.40594,-0.573852 0.55951,-0.588198 0.55951,-1.563747 0,-0.975548 -0.55951,-1.5494 -0.54516,-0.588198 -1.40594,-0.588198 -0.86077,0 -1.42028,0.588198 -0.54516,0.573852 -0.54516,1.5494 0,0.975549 0.54516,1.563747 0.55951,0.573852 1.42028,0.573852 z"
       id="path5" /><path
       style="color:#000000;font-style:normal;font-variant:normal;font-weight:normal;font-stretch:normal;font-size:medium;line-height:normal;font-family:Montserrat;-inkscape-font-specification:'Montserrat, Bold';font-variant-ligatures:normal;font-variant-position:normal;font-variant-caps:normal;font-variant-numeric:normal;font-variant-alternates:normal;font-variant-east-asian:normal;font-feature-settings:normal;font-variation-settings:normal;text-indent:0;text-align:start;text-decoration-line:none;text-decoration-style:solid;text-decoration-color:#000000;letter-spacing:-0.79375px;word-spacing:0px;text-transform:none;writing-mode:lr-tb;direction:ltr;text-orientation:mixed;dominant-baseline:auto;baseline-shift:baseline;text-anchor:start;white-space:normal;shape-padding:0;shape-margin:0;inline-size:0;clip-rule:nonzero;display:inline;overflow:visible;visibility:visible;isolation:auto;mix-blend-mode:normal;color-interpolation:sRGB;color-interpolation-filters:linearRGB;solid-color:#000000;solid-opacity:1;vector-effect:none;fill:#666666;fill-opacity:1;fill-rule:nonzero;stroke:none;stroke-width:0.751001;stroke-linecap:butt;stroke-linejoin:miter;stroke-miterlimit:4;stroke-dasharray:none;stroke-dashoffset:0;stroke-opacity:1;-inkscape-stroke:none;paint-order:markers stroke fill;color-rendering:auto;image-rendering:auto;shape-rendering:auto;text-rendering:auto;enable-background:accumulate;stop-color:#000000"
       d="m 116.43402,54.362787 v 10.04241 h -2.3241 v -4.117388 h -4.56212 v 4.117388 h -2.32411 v -10.04241 h 2.32411 v 3.959579 h 4.56212 v -3.959579 z m 8.99043,6.211948 q 0,0.04304 -0.043,0.602545 h -5.83895 q 0.15781,0.717315 0.74601,1.133357 0.5882,0.416043 1.46332,0.416043 0.60255,0 1.06163,-0.172156 0.47343,-0.186501 0.87512,-0.573852 l 1.19075,1.291167 q -1.09032,1.248129 -3.18488,1.248129 -1.30552,0 -2.30976,-0.502121 -1.00424,-0.516467 -1.5494,-1.420284 -0.54516,-0.903817 -0.54516,-2.051521 0,-1.133357 0.53082,-2.037174 0.54515,-0.918163 1.47766,-1.420284 0.94686,-0.516467 2.10891,-0.516467 1.13336,0 2.05152,0.487774 0.91816,0.487775 1.43463,1.405938 0.53081,0.903817 0.53081,2.108906 z m -4.00261,-2.309754 q -0.76036,0 -1.27682,0.430389 -0.51647,0.430389 -0.63124,1.176396 h 3.80177 q -0.11477,-0.731661 -0.63124,-1.16205 -0.51647,-0.444735 -1.26247,-0.444735 z m 4.70089,-4.504739 h 2.23802 v 10.644955 h -2.23802 z m 8.08662,2.811875 q 1.07597,0 1.95109,0.502121 0.88947,0.487774 1.39159,1.391591 0.50212,0.88947 0.50212,2.080213 0,1.190743 -0.50212,2.09456 -0.50212,0.889471 -1.39159,1.391591 -0.87512,0.487775 -1.95109,0.487775 -1.47767,0 -2.3241,-0.93251 v 3.600921 h -2.23803 V 56.686888 h 2.1376 v 0.88947 q 0.83209,-1.004241 2.42453,-1.004241 z m -0.38735,6.111524 q 0.86077,0 1.40593,-0.573852 0.55951,-0.588198 0.55951,-1.563747 0,-0.975548 -0.55951,-1.5494 -0.54516,-0.588198 -1.40593,-0.588198 -0.86078,0 -1.42029,0.588198 -0.54516,0.573852 -0.54516,1.5494 0,0.975549 0.54516,1.563747 0.55951,0.573852 1.42029,0.573852 z m 12.49092,-2.108906 q 0,0.04304 -0.043,0.602545 h -5.83895 q 0.15781,0.717315 0.74601,1.133357 0.5882,0.416043 1.46332,0.416043 0.60255,0 1.06163,-0.172156 0.47343,-0.186501 0.87512,-0.573852 l 1.19074,1.291167 q -1.09031,1.248129 -3.18487,1.248129 -1.30552,0 -2.30976,-0.502121 -1.00424,-0.516467 -1.5494,-1.420284 -0.54516,-0.903817 -0.54516,-2.051521 0,-1.133357 0.53082,-2.037174 0.54515,-0.918163 1.47766,-1.420284 0.94686,-0.516467 2.10891,-0.516467 1.13336,0 2.05152,0.487774 0.91816,0.487775 1.43463,1.405938 0.53081,0.903817 0.53081,2.108906 z m -4.00261,-2.309754 q -0.76036,0 -1.27682,0.430389 -0.51647,0.430389 -0.63124,1.176396 h 3.80177 q -0.11477,-0.731661 -0.63124,-1.16205 -0.51647,-0.444735 -1.26247,-0.444735 z m 6.83849,-0.559506 q 0.40169,-0.559506 1.07597,-0.846432 0.68862,-0.286926 1.57809,-0.286926 v 2.065867 q -0.373,-0.02869 -0.50212,-0.02869 -0.9612,0 -1.50636,0.545159 -0.54516,0.530813 -0.54516,1.606786 v 3.64396 H 147.0112 V 56.68689 h 2.1376 z"
       id="path6" /><path
       style="font-weight:300;font-size:6.22911px;font-family:Montserrat;-inkscape-font-specification:'Montserrat Light';text-align:center;letter-spacing:-0.344643px;word-spacing:0px;text-anchor:middle;stroke-width:0.326081;stroke-linecap:round;stroke-linejoin:round;paint-order:markers stroke fill;fill:#666666"
       d="m 86.419523,45.990544 q 0.454725,0 0.822243,0.21179 0.367517,0.211789 0.573078,0.585536 0.21179,0.373746 0.21179,0.853388 0,0.479641 -0.21179,0.859617 -0.205561,0.373747 -0.573078,0.585536 -0.367518,0.205561 -0.822243,0.205561 -0.429808,0 -0.778639,-0.199332 -0.34883,-0.20556 -0.541932,-0.566849 v 1.949712 H 84.787496 V 46.01546 h 0.298998 v 0.766181 q 0.193102,-0.373747 0.541932,-0.579307 0.355059,-0.21179 0.791097,-0.21179 z m -0.01869,3.021118 q 0.373746,0 0.672744,-0.174415 0.298997,-0.174415 0.467183,-0.485871 0.174415,-0.311455 0.174415,-0.710118 0,-0.398663 -0.174415,-0.710119 -0.168186,-0.311455 -0.467183,-0.48587 -0.298998,-0.174415 -0.672744,-0.174415 -0.373747,0 -0.672744,0.174415 -0.292768,0.174415 -0.467183,0.48587 -0.168186,0.311456 -0.168186,0.710119 0,0.398663 0.168186,0.710118 0.174415,0.311456 0.467183,0.485871 0.298997,0.174415 0.672744,0.174415 z m 3.5174,0.28031 q -0.460954,0 -0.834701,-0.21179 -0.367517,-0.21179 -0.579307,-0.585536 -0.21179,-0.379976 -0.21179,-0.853388 0,-0.473412 0.21179,-0.847159 0.21179,-0.379976 0.579307,-0.591765 0.373747,-0.21179 0.834701,-0.21179 0.460954,0 0.828472,0.21179 0.373746,0.211789 0.585536,0.591765 0.21179,0.373747 0.21179,0.847159 0,0.473412 -0.21179,0.853388 -0.21179,0.373746 -0.585536,0.585536 -0.367518,0.21179 -0.828472,0.21179 z m 0,-0.28031 q 0.373746,0 0.666515,-0.174415 0.298997,-0.174415 0.467183,-0.485871 0.174415,-0.311455 0.174415,-0.710118 0,-0.398663 -0.174415,-0.710119 -0.168186,-0.311455 -0.467183,-0.48587 -0.292769,-0.174415 -0.666515,-0.174415 -0.373747,0 -0.672744,0.174415 -0.292768,0.174415 -0.467183,0.48587 -0.168186,0.311456 -0.168186,0.710119 0,0.398663 0.168186,0.710118 0.174415,0.311456 0.467183,0.485871 0.298997,0.174415 0.672744,0.174415 z m 6.800155,-2.996202 -1.233364,3.251596 h -0.292768 l -1.096323,-2.821787 -1.102553,2.821787 H 92.706844 L 91.47348,46.01546 h 0.298998 l 1.083865,2.902765 1.108781,-2.902765 h 0.267852 l 1.102552,2.896536 1.096324,-2.896536 z m 3.031535,1.700547 h -2.79687 q 0.01246,0.379976 0.193102,0.678973 0.180644,0.292768 0.485871,0.454725 0.311455,0.161957 0.69766,0.161957 0.317685,0 0.585536,-0.112124 0.274081,-0.118353 0.454725,-0.342601 l 0.180644,0.205561 q -0.211789,0.255393 -0.535703,0.392434 -0.317685,0.13704 -0.691431,0.13704 -0.485871,0 -0.865846,-0.21179 -0.379976,-0.21179 -0.597995,-0.585536 -0.21179,-0.373747 -0.21179,-0.853388 0,-0.473412 0.199332,-0.847159 0.20556,-0.379976 0.56062,-0.591765 0.355059,-0.21179 0.797326,-0.21179 0.442267,0 0.791097,0.21179 0.355059,0.20556 0.55439,0.579307 0.205561,0.373746 0.205561,0.847159 z m -1.544819,-1.451382 q -0.342601,0 -0.616682,0.155727 -0.274081,0.149499 -0.442267,0.429809 -0.161957,0.274081 -0.186873,0.622911 h 2.491644 q -0.01869,-0.34883 -0.186874,-0.622911 -0.168186,-0.274081 -0.442266,-0.429809 -0.274081,-0.155727 -0.616682,-0.155727 z m 2.470913,0.460954 q 0.1495,-0.35506 0.46719,-0.541933 0.31768,-0.193102 0.77241,-0.193102 v 0.305226 l -0.0748,-0.0062 q -0.54194,0 -0.84716,0.342601 -0.30523,0.336372 -0.30523,0.940596 v 1.694318 h -0.31145 V 46.01546 h 0.29899 z m 4.47046,0.990428 h -2.79687 q 0.0125,0.379976 0.1931,0.678973 0.18064,0.292768 0.48587,0.454725 0.31145,0.161957 0.69766,0.161957 0.31768,0 0.58554,-0.112124 0.27408,-0.118353 0.45472,-0.342601 l 0.18064,0.205561 q -0.21179,0.255393 -0.5357,0.392434 -0.31768,0.13704 -0.69143,0.13704 -0.48587,0 -0.86585,-0.21179 -0.37997,-0.21179 -0.59799,-0.585536 -0.21179,-0.373747 -0.21179,-0.853388 0,-0.473412 0.19933,-0.847159 0.20556,-0.379976 0.56062,-0.591765 0.35506,-0.21179 0.79733,-0.21179 0.44226,0 0.79109,0.21179 0.35506,0.20556 0.55439,0.579307 0.20557,0.373746 0.20557,0.847159 z m -1.54482,-1.451382 q -0.3426,0 -0.61668,0.155727 -0.27409,0.149499 -0.44227,0.429809 -0.16196,0.274081 -0.18688,0.622911 h 2.49165 q -0.0187,-0.34883 -0.18687,-0.622911 -0.16819,-0.274081 -0.44227,-0.429809 -0.27408,-0.155727 -0.61668,-0.155727 z m 5.06222,-1.619569 v 4.622 h -0.30522 v -0.766181 q -0.19311,0.379976 -0.54194,0.585536 -0.34883,0.205561 -0.79109,0.205561 -0.45473,0 -0.82225,-0.21179 -0.36751,-0.21179 -0.5793,-0.585536 -0.20556,-0.373747 -0.20556,-0.853388 0,-0.479642 0.20556,-0.853388 0.21179,-0.379976 0.5793,-0.585536 0.36752,-0.21179 0.82225,-0.21179 0.43603,0 0.77863,0.20556 0.34883,0.205561 0.54817,0.573078 v -2.124126 z m -1.61957,4.366606 q 0.37375,0 0.66652,-0.174415 0.299,-0.174415 0.46718,-0.485871 0.17442,-0.311455 0.17442,-0.710118 0,-0.398663 -0.17442,-0.710119 -0.16818,-0.311455 -0.46718,-0.48587 -0.29277,-0.174415 -0.66652,-0.174415 -0.37374,0 -0.67274,0.174415 -0.29277,0.174415 -0.46718,0.48587 -0.16819,0.311456 -0.16819,0.710119 0,0.398663 0.16819,0.710118 0.17441,0.311456 0.46718,0.485871 0.299,0.174415 0.67274,0.174415 z m 5.47753,-3.021118 q 0.45473,0 0.82224,0.21179 0.36752,0.20556 0.57308,0.585536 0.21179,0.373746 0.21179,0.853388 0,0.479641 -0.21179,0.853388 -0.20556,0.373746 -0.57308,0.585536 -0.36751,0.21179 -0.82224,0.21179 -0.43604,0 -0.7911,-0.205561 -0.34883,-0.211789 -0.54193,-0.585536 v 0.766181 h -0.299 v -4.622 h 0.31146 v 2.111668 q 0.1931,-0.361288 0.54193,-0.56062 0.34883,-0.20556 0.77864,-0.20556 z m -0.0187,3.021118 q 0.37375,0 0.67275,-0.174415 0.29899,-0.174415 0.46718,-0.485871 0.17442,-0.311455 0.17442,-0.710118 0,-0.398663 -0.17442,-0.710119 -0.16819,-0.311455 -0.46718,-0.48587 -0.299,-0.174415 -0.67275,-0.174415 -0.37374,0 -0.67274,0.174415 -0.29277,0.174415 -0.46718,0.48587 -0.16819,0.311456 -0.16819,0.710119 0,0.398663 0.16819,0.710118 0.17441,0.311456 0.46718,0.485871 0.299,0.174415 0.67274,0.174415 z m 4.76323,-2.996202 -1.6694,3.693862 q -0.18688,0.429809 -0.43604,0.610453 -0.24294,0.180644 -0.57931,0.180644 -0.22425,0 -0.42358,-0.07475 -0.1931,-0.07475 -0.33014,-0.218019 l 0.15573,-0.236706 q 0.24916,0.255393 0.60422,0.255393 0.23671,0 0.40489,-0.130811 0.16819,-0.130811 0.31146,-0.448496 l 0.17441,-0.392434 -1.46384,-3.239137 h 0.33015 l 1.30188,2.908994 1.30188,-2.908994 z"
       id="text2"
       aria-label="powered by" /><path
       d="m 100.80756,73.988625 -0.004,-2.085244 -1.033632,1.725719 h -0.260656 l -1.033634,-1.698755 v 2.05828 h -0.557263 v -3.145842 h 0.480864 l 1.249349,2.085243 1.226882,-2.085243 h 0.48086 l 0.004,3.145842 z m 2.265,-2.426793 q 0.5303,0 0.80893,0.256162 0.28313,0.251667 0.28313,0.76399 v 1.406641 h -0.5303 v -0.292114 q -0.10336,0.157292 -0.29661,0.242679 -0.18875,0.08089 -0.45839,0.08089 -0.26965,0 -0.47188,-0.08988 -0.20223,-0.09437 -0.31458,-0.256162 -0.10786,-0.16628 -0.10786,-0.373007 0,-0.323572 0.23818,-0.516817 0.24268,-0.197738 0.7595,-0.197738 h 0.62018 v -0.03595 q 0,-0.251667 -0.1528,-0.386489 -0.1483,-0.134822 -0.44491,-0.134822 -0.20223,0 -0.39997,0.06292 -0.19325,0.06292 -0.32807,0.175269 l -0.22021,-0.40896 q 0.18875,-0.14381 0.4539,-0.220209 0.26515,-0.0764 0.56176,-0.0764 z m -0.0764,2.049292 q 0.21122,0 0.37301,-0.09438 0.16628,-0.09887 0.23369,-0.278631 v -0.278632 h -0.57973 q -0.48536,0 -0.48536,0.319078 0,0.152798 0.12134,0.242679 0.12134,0.08988 0.33705,0.08988 z m 3.24921,-2.049292 q 0.4539,0 0.72804,0.26515 0.27413,0.265149 0.27413,0.78646 v 1.375183 h -0.56175 v -1.303278 q 0,-0.314584 -0.14831,-0.471876 -0.1483,-0.161786 -0.42244,-0.161786 -0.31009,0 -0.48985,0.18875 -0.17976,0.184257 -0.17976,0.534793 v 1.213397 h -0.56176 v -2.399828 h 0.53479 v 0.31009 q 0.13932,-0.166281 0.35054,-0.251668 0.21122,-0.08539 0.47637,-0.08539 z m 2.63352,0 q 0.5303,0 0.80893,0.256162 0.28312,0.251667 0.28312,0.76399 v 1.406641 h -0.5303 v -0.292114 q -0.10336,0.157292 -0.2966,0.242679 -0.18875,0.08089 -0.4584,0.08089 -0.26964,0 -0.47187,-0.08988 -0.20224,-0.09437 -0.31459,-0.256162 -0.10786,-0.16628 -0.10786,-0.373007 0,-0.323572 0.23819,-0.516817 0.24268,-0.197738 0.7595,-0.197738 h 0.62018 v -0.03595 q 0,-0.251667 -0.1528,-0.386489 -0.14831,-0.134822 -0.44491,-0.134822 -0.20224,0 -0.39998,0.06292 -0.19324,0.06292 -0.32806,0.175269 l -0.22021,-0.40896 q 0.18875,-0.14381 0.4539,-0.220209 0.26515,-0.0764 0.56176,-0.0764 z m -0.0764,2.049292 q 0.21122,0 0.373,-0.09438 0.16628,-0.09887 0.2337,-0.278631 v -0.278632 h -0.57974 q -0.48536,0 -0.48536,0.319078 0,0.152798 0.12134,0.242679 0.12134,0.08988 0.33706,0.08988 z m 4.29182,-2.022327 v 2.035809 q 0,1.267325 -1.29429,1.267325 -0.34604,0 -0.65613,-0.08988 -0.31009,-0.08539 -0.51232,-0.251667 l 0.25166,-0.422442 q 0.1573,0.130328 0.39548,0.206727 0.24268,0.08089 0.48985,0.08089 0.39548,0 0.57974,-0.179762 0.18426,-0.179763 0.18426,-0.548275 v -0.125834 q -0.14381,0.157292 -0.35054,0.238185 -0.20673,0.08089 -0.4539,0.08089 -0.34155,0 -0.62018,-0.14381 -0.27414,-0.148304 -0.43593,-0.413453 -0.15729,-0.26515 -0.15729,-0.606698 0,-0.341549 0.15729,-0.602204 0.16179,-0.26515 0.43593,-0.40896 0.27863,-0.14381 0.62018,-0.14381 0.26065,0 0.47187,0.08539 0.21572,0.08539 0.35953,0.260656 v -0.319078 z m -1.2808,1.8156 q 0.31907,0 0.52131,-0.188751 0.20672,-0.193244 0.20672,-0.49884 0,-0.301102 -0.20672,-0.489853 -0.20224,-0.18875 -0.52131,-0.18875 -0.32358,0 -0.5303,0.18875 -0.20224,0.188751 -0.20224,0.489853 0,0.305596 0.20224,0.49884 0.20672,0.188751 0.5303,0.188751 z m 4.27385,-0.602204 q 0,0.05842 -0.009,0.16628 h -1.88301 q 0.0494,0.265149 0.25616,0.422442 0.21122,0.152798 0.52131,0.152798 0.39548,0 0.65164,-0.260656 l 0.3011,0.346043 q -0.16178,0.193244 -0.40896,0.292114 -0.24717,0.09887 -0.55726,0.09887 -0.39548,0 -0.69658,-0.157292 -0.3011,-0.157292 -0.46738,-0.435924 -0.16179,-0.283126 -0.16179,-0.638156 0,-0.350537 0.15729,-0.629169 0.16179,-0.283126 0.44492,-0.440418 0.28312,-0.157292 0.63815,-0.157292 0.35054,0 0.62468,0.157292 0.27863,0.152798 0.43143,0.435924 0.15729,0.278632 0.15729,0.647145 z m -1.2134,-0.790955 q -0.26964,0 -0.45839,0.161786 -0.18426,0.157292 -0.22471,0.422442 h 1.36171 q -0.036,-0.260656 -0.22021,-0.422442 -0.18426,-0.161786 -0.4584,-0.161786 z m 2.28748,-0.07191 q 0.24268,-0.377501 0.85387,-0.377501 v 0.534793 q -0.0719,-0.01348 -0.13033,-0.01348 -0.32807,0 -0.51232,0.193245 -0.18426,0.18875 -0.18426,0.548275 v 1.163962 h -0.56176 v -2.399828 h 0.5348 z m 2.647,-1.285301 h 0.51681 v 4.20644 h -0.51681 z m 2.60205,0.188751 h 1.37518 q 0.50334,0 0.89432,0.197738 0.39098,0.193245 0.6067,0.55277 0.21571,0.35503 0.21571,0.822413 0,0.467382 -0.21571,0.826907 -0.21572,0.35503 -0.6067,0.552769 -0.39098,0.193245 -0.89432,0.193245 h -1.37518 z m 1.34822,2.651495 q 0.34604,0 0.6067,-0.130328 0.26515,-0.134822 0.40446,-0.377501 0.14381,-0.247173 0.14381,-0.570745 0,-0.323573 -0.14381,-0.566252 -0.13931,-0.247173 -0.40446,-0.377501 -0.26066,-0.134822 -0.6067,-0.134822 h -0.76399 v 2.157149 z m 4.56596,-0.692085 q 0,0.05842 -0.009,0.16628 h -1.88301 q 0.0494,0.265149 0.25616,0.422442 0.21123,0.152798 0.52132,0.152798 0.39547,0 0.65163,-0.260656 l 0.30111,0.346043 q -0.16179,0.193244 -0.40896,0.292114 -0.24718,0.09887 -0.55727,0.09887 -0.39547,0 -0.69658,-0.157292 -0.3011,-0.157292 -0.46738,-0.435924 -0.16178,-0.283126 -0.16178,-0.638156 0,-0.350537 0.15729,-0.629169 0.16178,-0.283126 0.44491,-0.440418 0.28313,-0.157292 0.63816,-0.157292 0.35053,0 0.62467,0.157292 0.27863,0.152798 0.43143,0.435924 0.15729,0.278632 0.15729,0.647145 z m -1.21339,-0.790955 q -0.26965,0 -0.4584,0.161786 -0.18425,0.157292 -0.2247,0.422442 h 1.3617 q -0.0359,-0.260656 -0.22021,-0.422442 -0.18426,-0.161786 -0.45839,-0.161786 z m 3.95477,-0.422441 -1.02914,2.399828 h -0.57974 l -1.02914,-2.399828 h 0.58423 l 0.74602,1.779647 0.76848,-1.779647 z m 0.91229,-0.251668 h -1.04262 v -0.494346 h 2.66947 v 0.494346 h -1.04262 v 2.651496 h -0.58423 z m 2.84473,2.682954 q -0.36401,0 -0.65613,-0.157292 -0.29211,-0.157292 -0.45839,-0.435924 -0.16179,-0.283126 -0.16179,-0.638156 0,-0.355031 0.16179,-0.633663 0.16628,-0.278632 0.45839,-0.435924 0.29212,-0.157292 0.65613,-0.157292 0.36852,0 0.66063,0.157292 0.29212,0.157292 0.4539,0.435924 0.16628,0.278632 0.16628,0.633663 0,0.35503 -0.16628,0.638156 -0.16178,0.278632 -0.4539,0.435924 -0.29211,0.157292 -0.66063,0.157292 z m 0,-0.480864 q 0.31009,0 0.51233,-0.206727 0.20223,-0.206727 0.20223,-0.543781 0,-0.337055 -0.20223,-0.543782 -0.20224,-0.206726 -0.51233,-0.206726 -0.31009,0 -0.51232,0.206726 -0.19774,0.206727 -0.19774,0.543782 0,0.337054 0.19774,0.543781 0.20223,0.206727 0.51232,0.206727 z m 2.89867,0.480864 q -0.36401,0 -0.65613,-0.157292 -0.29211,-0.157292 -0.45839,-0.435924 -0.16179,-0.283126 -0.16179,-0.638156 0,-0.355031 0.16179,-0.633663 0.16628,-0.278632 0.45839,-0.435924 0.29212,-0.157292 0.65613,-0.157292 0.36852,0 0.66063,0.157292 0.29212,0.157292 0.4539,0.435924 0.16628,0.278632 0.16628,0.633663 0,0.35503 -0.16628,0.638156 -0.16178,0.278632 -0.4539,0.435924 -0.29211,0.157292 -0.66063,0.157292 z m 0,-0.480864 q 0.3101,0 0.51233,-0.206727 0.20223,-0.206727 0.20223,-0.543781 0,-0.337055 -0.20223,-0.543782 -0.20223,-0.206726 -0.51233,-0.206726 -0.31009,0 -0.51232,0.206726 -0.19774,0.206727 -0.19774,0.543782 0,0.337054 0.19774,0.543781 0.20223,0.206727 0.51232,0.206727 z m 1.8201,-2.885187 h 0.56176 v 3.334593 h -0.56176 z m 2.0403,3.366051 q -0.29211,0 -0.57074,-0.0764 -0.27863,-0.0764 -0.44491,-0.193245 l 0.21571,-0.426935 q 0.16179,0.107857 0.38649,0.175268 0.2292,0.06292 0.44941,0.06292 0.50333,0 0.50333,-0.26515 0,-0.125833 -0.13033,-0.175268 -0.12583,-0.04943 -0.40896,-0.09437 -0.2966,-0.04494 -0.48536,-0.103364 -0.18425,-0.05842 -0.32357,-0.202232 -0.13482,-0.148304 -0.13482,-0.40896 0,-0.341548 0.28313,-0.543781 0.28762,-0.206727 0.77297,-0.206727 0.24718,0 0.49435,0.05842 0.24717,0.05393 0.40447,0.148304 l -0.21572,0.426936 Q 142.072,72.015732 141.69,72.015732 q -0.24717,0 -0.3775,0.0764 -0.12583,0.07191 -0.12583,0.193245 0,0.134822 0.13482,0.193244 0.13931,0.05393 0.42693,0.103364 0.28762,0.04494 0.47188,0.103363 0.18426,0.05842 0.31458,0.197739 0.13483,0.139316 0.13483,0.395477 0,0.337055 -0.29212,0.539287 -0.29211,0.202233 -0.79545,0.202233 z"
       id="text5"
       style="font-weight:600;font-size:4.49406px;font-family:Montserrat;-inkscape-font-specification:'Montserrat Semi-Bold';text-align:center;letter-spacing:0px;word-spacing:0px;text-anchor:middle;fill:#666666;stroke-width:0.235255;stroke-linecap:round;stroke-linejoin:round;paint-order:markers stroke fill"
       aria-label="Manager | DevTools" /><path
       d="m 81.731685,50.830845 -0.126029,0.597306 -0.08949,0.552782 -0.05905,0.511956 -0.0284,0.475862 -0.0018,0.439622 0.02633,0.409743 0.04881,0.377643 0.07322,0.349834 0.09156,0.328681 0.109905,0.305013 0.1281,0.285933 0.14023,0.26892 0.154578,0.255904 0.164785,0.24555 0.174991,0.236674 0.180908,0.230609 0.37217,0.454414 0.378384,0.462994 0.187121,0.241112 0.181055,0.251761 0.172773,0.26478 0.166855,0.281494 0.154578,0.296582 0.142301,0.320102 0.1281,0.341402 0.111977,0.369212 0.09555,0.39687 0.07322,0.428825 0.05088,0.460923 0.0284,0.499236 0.0041,0.510033 -0.01627,0.488585 -0.03461,0.471574 -0.05278,0.450125 -0.07322,0.433256 -0.08949,0.413885 -0.107983,0.394802 -0.123958,0.377644 -0.140378,0.360633 -0.156501,0.341403 -0.17292,0.326463 -0.18505,0.307233 -0.203392,0.290222 -0.213599,0.273063 -0.22987,0.258123 -0.242,0.239035 -0.254277,0.224101 -0.264335,0.209013 -0.278685,0.192003 -0.288742,0.17721 -0.297027,0.162122 -0.309156,0.147182 -0.319209,0.130171 -0.325427,0.117449 -0.335634,0.102362 -0.343622,0.08742 -0.352053,0.0747 -0.355751,0.05976 -0.364035,0.04704 -0.370248,0.03195 -0.376312,0.01923 -0.380159,0.0064 -0.380448,-0.01065 -0.374242,-0.03207 -0.370099,-0.05325 -0.364035,-0.07248 -0.35797,-0.09171 -0.351906,-0.11316 -0.343769,-0.130171 -0.335486,-0.149401 -0.32957,-0.166411 -0.319362,-0.183423 -0.309156,-0.198511 -0.300867,-0.21774 -0.290961,-0.230462 -0.280608,-0.245254 -0.268477,-0.262555 -0.258271,-0.273063 -0.244071,-0.288003 -0.233864,-0.300873 -0.219663,-0.313593 -0.207534,-0.326611 -0.193186,-0.334895 -0.178985,-0.347911 -0.164784,-0.356343 -0.148366,-0.366845 -0.132241,-0.375721 -0.115971,-0.386069 -0.101622,-0.392732 -0.08136,-0.401015 -0.06716,-0.405453 -0.04674,-0.414033 -0.02852,-0.420245 -0.01006,-0.426754 0.01006,-0.431043 0.02852,-0.437404 0.04881,-0.44169 0.06908,-0.445983 0.08757,-0.445983 0.109757,-0.450124 0.130171,-0.448202 0.152507,-0.445835 0.172921,-0.443764 0.195256,-0.439622 0.215522,-0.433113 0.240076,-0.426754 0.262265,-0.41832 0.284749,-0.407524 0.309156,-0.398944 0.33164,-0.386222 0.3559,-0.371283 0.380158,-0.358413 0.404855,-0.341402 0.429121,-0.326462 0.455598,-0.305163 0.480006,-0.285931 0.506483,-0.266702 0.532813,-0.243331 0.559292,-0.217444 0.585763,-0.194369 0.612247,-0.16863 0.640501,-0.138603 0.667126,-0.113011 0.695675,-0.08106 0.724076,-0.04911 z"
       style="color:#000000;font-style:normal;font-variant:normal;font-weight:normal;font-stretch:normal;font-size:medium;line-height:normal;font-family:sans-serif;font-variant-ligatures:normal;font-variant-position:normal;font-variant-caps:normal;font-variant-numeric:normal;font-variant-alternates:normal;font-variant-east-asian:normal;font-feature-settings:normal;font-variation-settings:normal;text-indent:0;text-align:start;text-decoration-line:none;text-decoration-style:solid;text-decoration-color:#000000;letter-spacing:normal;word-spacing:normal;text-transform:none;writing-mode:lr-tb;direction:ltr;text-orientation:mixed;dominant-baseline:auto;baseline-shift:baseline;text-anchor:start;white-space:normal;shape-padding:0;shape-margin:0;inline-size:0;clip-rule:nonzero;display:inline;overflow:visible;visibility:visible;isolation:auto;mix-blend-mode:normal;color-interpolation:sRGB;color-interpolation-filters:linearRGB;solid-color:#000000;solid-opacity:1;vector-effect:none;fill:#0093dd;fill-opacity:1;fill-rule:evenodd;stroke:none;stroke-width:0.591686;stroke-linecap:butt;stroke-linejoin:miter;stroke-miterlimit:4;stroke-dasharray:none;stroke-dashoffset:0;stroke-opacity:1;-inkscape-stroke:none;color-rendering:auto;image-rendering:auto;shape-rendering:auto;text-rendering:auto;enable-background:accumulate;stop-color:#000000"
       id="path1" /><path
       d="m 77.306032,55.341409 0.04479,0.606034 0.071,0.556924 0.0957,0.510032 0.119965,0.465065 0.138306,0.424534 0.15872,0.388441 0.174843,0.349982 0.191263,0.318031 0.205315,0.288002 0.217741,0.260342 0.225728,0.234603 0.235935,0.213451 0.241999,0.192002 0.246142,0.177059 0.249987,0.162122 0.252354,0.149401 0.248065,0.14304 0.248212,0.134312 0.244071,0.13239 0.237852,0.130171 0.227799,0.132242 0.221882,0.136532 0.207386,0.145111 0.195257,0.15369 0.178985,0.166412 0.164636,0.181352 0.144372,0.198363 0.124254,0.219811 0.101622,0.243331 0.07722,0.268773 0.05296,0.298802 0.02444,0.328534 0.0018,0.339326 -0.01036,0.326463 -0.02219,0.311522 -0.03668,0.300725 -0.04881,0.288151 -0.05905,0.277353 -0.071,0.262413 -0.08358,0.251762 -0.09349,0.239041 -0.103693,0.228243 -0.11597,0.217741 -0.124106,0.204871 -0.134165,0.192002 -0.142448,0.183423 -0.15236,0.170701 -0.16079,0.160046 -0.17085,0.1494 -0.176914,0.138751 -0.185044,0.127952 -0.191262,0.119521 -0.199251,0.106651 -0.205611,0.09822 -0.21138,0.08742 -0.217592,0.07692 -0.223805,0.06804 -0.229723,0.05991 -0.234011,0.04911 -0.237858,0.04053 -0.242,0.02988 -0.246141,0.0213 -0.250136,0.01272 -0.252206,0.0041 -0.254277,-0.0065 -0.250135,-0.0213 -0.246136,-0.03627 -0.24407,-0.04704 -0.238006,-0.06183 -0.233716,-0.0747 -0.227799,-0.08742 -0.225877,-0.10029 L 75.906549,68.250287 75.69295,68.126477 75.487487,67.994235 75.286314,67.849272 75.09298,67.695434 74.90586,67.531247 74.726874,67.358326 74.556025,67.174904 74.39124,66.982901 74.236662,66.78232 74.09022,66.573159 73.952061,66.357637 73.823813,66.133684 73.703997,65.903222 73.59602,65.664181 73.49647,65.420998 73.40698,65.169235 73.32962,64.913183 73.26246,64.650622 73.20773,64.38392 l -0.0429,-0.270992 -0.03254,-0.275134 -0.01822,-0.279566 -0.0062,-0.283862 0.0041,-0.285932 0.01213,-0.285784 0.02248,-0.288152 0.03047,-0.288003 0.03858,-0.288151 0.04674,-0.285784 0.05503,-0.288152 0.06509,-0.285932 0.071,-0.283713 0.07943,-0.283862 0.08949,-0.279569 0.09762,-0.279571 0.103693,-0.275133 0.1139,-0.270993 0.119964,-0.268772 0.130171,-0.264779 0.136384,-0.260194 0.146442,-0.258123 0.152359,-0.249691 0.160791,-0.247473 0.168779,-0.23904 0.174991,-0.234751 0.184902,-0.228243 0.191262,-0.221882 0.199398,-0.215521 0.207386,-0.20709 0.213599,-0.198214 0.221735,-0.192298 0.229722,-0.183422 0.235935,-0.172773 0.24407,-0.166411 z"
       style="color:#000000;font-style:normal;font-variant:normal;font-weight:normal;font-stretch:normal;font-size:medium;line-height:normal;font-family:sans-serif;font-variant-ligatures:normal;font-variant-position:normal;font-variant-caps:normal;font-variant-numeric:normal;font-variant-alternates:normal;font-variant-east-asian:normal;font-feature-settings:normal;font-variation-settings:normal;text-indent:0;text-align:start;text-decoration-line:none;text-decoration-style:solid;text-decoration-color:#000000;letter-spacing:normal;word-spacing:normal;text-transform:none;writing-mode:lr-tb;direction:ltr;text-orientation:mixed;dominant-baseline:auto;baseline-shift:baseline;text-anchor:start;white-space:normal;shape-padding:0;shape-margin:0;inline-size:0;clip-rule:nonzero;display:inline;overflow:visible;visibility:visible;isolation:auto;mix-blend-mode:normal;color-interpolation:sRGB;color-interpolation-filters:linearRGB;solid-color:#000000;solid-opacity:1;vector-effect:none;fill:#ffffff;fill-opacity:1;fill-rule:evenodd;stroke:none;stroke-width:0.591686;stroke-linecap:butt;stroke-linejoin:miter;stroke-miterlimit:4;stroke-dasharray:none;stroke-dashoffset:0;stroke-opacity:1;-inkscape-stroke:none;color-rendering:auto;image-rendering:auto;shape-rendering:auto;text-rendering:auto;enable-background:accumulate;stop-color:#000000"
       id="path2" /></g></svg>
