<?xml version="1.0" encoding="UTF-8" standalone="no"?>
<!-- Created with Inkscape (http://www.inkscape.org/) -->

<svg
   width="81.50103mm"
   height="30.246874mm"
   viewBox="0 0 81.50103 30.246874"
   version="1.1"
   id="svg1"
   xml:space="preserve"
   inkscape:version="1.4 (86a8ad7, 2024-10-11)"
   sodipodi:docname="powerd.svg"
   xmlns:inkscape="http://www.inkscape.org/namespaces/inkscape"
   xmlns:sodipodi="http://sodipodi.sourceforge.net/DTD/sodipodi-0.dtd"
   xmlns="http://www.w3.org/2000/svg"
   xmlns:svg="http://www.w3.org/2000/svg"><sodipodi:namedview
     id="namedview1"
     pagecolor="#ffffff"
     bordercolor="#000000"
     borderopacity="0.25"
     inkscape:showpageshadow="2"
     inkscape:pageopacity="0.0"
     inkscape:pagecheckerboard="0"
     inkscape:deskcolor="#d1d1d1"
     inkscape:document-units="mm"
     inkscape:zoom="1.4378367"
     inkscape:cx="123.79709"
     inkscape:cy="149.18245"
     inkscape:window-width="1920"
     inkscape:window-height="1009"
     inkscape:window-x="1912"
     inkscape:window-y="-8"
     inkscape:window-maximized="1"
     inkscape:current-layer="layer1" /><defs
     id="defs1" /><g
     inkscape:label="Layer 1"
     inkscape:groupmode="layer"
     id="layer1"
     transform="translate(-70.301835,-44.645056)"><g
       id="text1"
       style="font-weight:bold;font-size:14.3463px;font-family:Montserrat;-inkscape-font-specification:'Montserrat, Bold';text-align:center;letter-spacing:-0.79375px;word-spacing:0px;text-anchor:middle;stroke-width:0.751001;stroke-linecap:round;stroke-linejoin:round;paint-order:markers stroke fill"
       aria-label="dpHelper"><path
         style="fill:#999999;stroke-width:0.751"
         d="m 96.688572,53.760242 v 10.644955 h -2.137599 v -0.88947 q -0.832085,1.004241 -2.410178,1.004241 -1.090319,0 -1.97979,-0.487775 -0.875124,-0.487774 -1.377245,-1.391591 -0.50212,-0.903817 -0.50212,-2.09456 0,-1.190743 0.50212,-2.094559 0.502121,-0.903817 1.377245,-1.391592 0.889471,-0.487774 1.97979,-0.487774 1.477668,0 2.309754,0.93251 v -3.744385 z m -4.160427,8.923399 q 0.846431,0 1.405937,-0.573852 0.559506,-0.588198 0.559506,-1.563747 0,-0.975548 -0.559506,-1.5494 -0.559506,-0.588198 -1.405937,-0.588198 -0.860778,0 -1.420284,0.588198 -0.559506,0.573852 -0.559506,1.5494 0,0.975549 0.559506,1.563747 0.559506,0.573852 1.420284,0.573852 z m 9.994655,-6.111524 q 1.07598,0 1.9511,0.502121 0.88947,0.487774 1.39159,1.391591 0.50212,0.88947 0.50212,2.080213 0,1.190743 -0.50212,2.09456 -0.50212,0.889471 -1.39159,1.391591 -0.87512,0.487775 -1.9511,0.487775 -1.47766,0 -2.3241,-0.93251 v 3.600921 H 97.960681 V 56.686888 h 2.137599 v 0.88947 q 0.83208,-1.004241 2.42452,-1.004241 z m -0.38735,6.111524 q 0.86078,0 1.40594,-0.573852 0.55951,-0.588198 0.55951,-1.563747 0,-0.975548 -0.55951,-1.5494 -0.54516,-0.588198 -1.40594,-0.588198 -0.86077,0 -1.42028,0.588198 -0.54516,0.573852 -0.54516,1.5494 0,0.975549 0.54516,1.563747 0.55951,0.573852 1.42028,0.573852 z"
         id="path5" /><path
         style="fill:#333333;stroke-width:0.751"
         d="m 116.43402,54.362787 v 10.04241 h -2.3241 v -4.117388 h -4.56212 v 4.117388 h -2.32411 v -10.04241 h 2.32411 v 3.959579 h 4.56212 v -3.959579 z m 8.99043,6.211948 q 0,0.04304 -0.043,0.602545 h -5.83895 q 0.15781,0.717315 0.74601,1.133357 0.5882,0.416043 1.46332,0.416043 0.60255,0 1.06163,-0.172156 0.47343,-0.186501 0.87512,-0.573852 l 1.19075,1.291167 q -1.09032,1.248129 -3.18488,1.248129 -1.30552,0 -2.30976,-0.502121 -1.00424,-0.516467 -1.5494,-1.420284 -0.54516,-0.903817 -0.54516,-2.051521 0,-1.133357 0.53082,-2.037174 0.54515,-0.918163 1.47766,-1.420284 0.94686,-0.516467 2.10891,-0.516467 1.13336,0 2.05152,0.487774 0.91816,0.487775 1.43463,1.405938 0.53081,0.903817 0.53081,2.108906 z m -4.00261,-2.309754 q -0.76036,0 -1.27682,0.430389 -0.51647,0.430389 -0.63124,1.176396 h 3.80177 q -0.11477,-0.731661 -0.63124,-1.16205 -0.51647,-0.444735 -1.26247,-0.444735 z m 4.70089,-4.504739 h 2.23802 v 10.644955 h -2.23802 z m 8.08662,2.811875 q 1.07597,0 1.95109,0.502121 0.88947,0.487774 1.39159,1.391591 0.50212,0.88947 0.50212,2.080213 0,1.190743 -0.50212,2.09456 -0.50212,0.889471 -1.39159,1.391591 -0.87512,0.487775 -1.95109,0.487775 -1.47767,0 -2.3241,-0.93251 v 3.600921 h -2.23803 V 56.686888 h 2.1376 v 0.88947 q 0.83209,-1.004241 2.42453,-1.004241 z m -0.38735,6.111524 q 0.86077,0 1.40593,-0.573852 0.55951,-0.588198 0.55951,-1.563747 0,-0.975548 -0.55951,-1.5494 -0.54516,-0.588198 -1.40593,-0.588198 -0.86078,0 -1.42029,0.588198 -0.54516,0.573852 -0.54516,1.5494 0,0.975549 0.54516,1.563747 0.55951,0.573852 1.42029,0.573852 z m 12.49092,-2.108906 q 0,0.04304 -0.043,0.602545 h -5.83895 q 0.15781,0.717315 0.74601,1.133357 0.5882,0.416043 1.46332,0.416043 0.60255,0 1.06163,-0.172156 0.47343,-0.186501 0.87512,-0.573852 l 1.19074,1.291167 q -1.09031,1.248129 -3.18487,1.248129 -1.30552,0 -2.30976,-0.502121 -1.00424,-0.516467 -1.5494,-1.420284 -0.54516,-0.903817 -0.54516,-2.051521 0,-1.133357 0.53082,-2.037174 0.54515,-0.918163 1.47766,-1.420284 0.94686,-0.516467 2.10891,-0.516467 1.13336,0 2.05152,0.487774 0.91816,0.487775 1.43463,1.405938 0.53081,0.903817 0.53081,2.108906 z m -4.00261,-2.309754 q -0.76036,0 -1.27682,0.430389 -0.51647,0.430389 -0.63124,1.176396 h 3.80177 q -0.11477,-0.731661 -0.63124,-1.16205 -0.51647,-0.444735 -1.26247,-0.444735 z m 6.83849,-0.559506 q 0.40169,-0.559506 1.07597,-0.846432 0.68862,-0.286926 1.57809,-0.286926 v 2.065867 q -0.373,-0.02869 -0.50212,-0.02869 -0.9612,0 -1.50636,0.545159 -0.54516,0.530813 -0.54516,1.606786 v 3.64396 h -2.23802 v -7.718309 h 2.1376 z"
         id="path6" /></g><path
       style="font-weight:300;font-size:6.22911px;font-family:Montserrat;-inkscape-font-specification:'Montserrat Light';text-align:center;letter-spacing:-0.344643px;word-spacing:0px;text-anchor:middle;stroke-width:0.326081;stroke-linecap:round;stroke-linejoin:round;paint-order:markers stroke fill"
       d="m 86.419523,45.990544 q 0.454725,0 0.822243,0.21179 0.367517,0.211789 0.573078,0.585536 0.21179,0.373746 0.21179,0.853388 0,0.479641 -0.21179,0.859617 -0.205561,0.373747 -0.573078,0.585536 -0.367518,0.205561 -0.822243,0.205561 -0.429808,0 -0.778639,-0.199332 -0.34883,-0.20556 -0.541932,-0.566849 v 1.949712 H 84.787496 V 46.01546 h 0.298998 v 0.766181 q 0.193102,-0.373747 0.541932,-0.579307 0.355059,-0.21179 0.791097,-0.21179 z m -0.01869,3.021118 q 0.373746,0 0.672744,-0.174415 0.298997,-0.174415 0.467183,-0.485871 0.174415,-0.311455 0.174415,-0.710118 0,-0.398663 -0.174415,-0.710119 -0.168186,-0.311455 -0.467183,-0.48587 -0.298998,-0.174415 -0.672744,-0.174415 -0.373747,0 -0.672744,0.174415 -0.292768,0.174415 -0.467183,0.48587 -0.168186,0.311456 -0.168186,0.710119 0,0.398663 0.168186,0.710118 0.174415,0.311456 0.467183,0.485871 0.298997,0.174415 0.672744,0.174415 z m 3.5174,0.28031 q -0.460954,0 -0.834701,-0.21179 -0.367517,-0.21179 -0.579307,-0.585536 -0.21179,-0.379976 -0.21179,-0.853388 0,-0.473412 0.21179,-0.847159 0.21179,-0.379976 0.579307,-0.591765 0.373747,-0.21179 0.834701,-0.21179 0.460954,0 0.828472,0.21179 0.373746,0.211789 0.585536,0.591765 0.21179,0.373747 0.21179,0.847159 0,0.473412 -0.21179,0.853388 -0.21179,0.373746 -0.585536,0.585536 -0.367518,0.21179 -0.828472,0.21179 z m 0,-0.28031 q 0.373746,0 0.666515,-0.174415 0.298997,-0.174415 0.467183,-0.485871 0.174415,-0.311455 0.174415,-0.710118 0,-0.398663 -0.174415,-0.710119 -0.168186,-0.311455 -0.467183,-0.48587 -0.292769,-0.174415 -0.666515,-0.174415 -0.373747,0 -0.672744,0.174415 -0.292768,0.174415 -0.467183,0.48587 -0.168186,0.311456 -0.168186,0.710119 0,0.398663 0.168186,0.710118 0.174415,0.311456 0.467183,0.485871 0.298997,0.174415 0.672744,0.174415 z m 6.800155,-2.996202 -1.233364,3.251596 h -0.292768 l -1.096323,-2.821787 -1.102553,2.821787 H 92.706844 L 91.47348,46.01546 h 0.298998 l 1.083865,2.902765 1.108781,-2.902765 h 0.267852 l 1.102552,2.896536 1.096324,-2.896536 z m 3.031535,1.700547 h -2.79687 q 0.01246,0.379976 0.193102,0.678973 0.180644,0.292768 0.485871,0.454725 0.311455,0.161957 0.69766,0.161957 0.317685,0 0.585536,-0.112124 0.274081,-0.118353 0.454725,-0.342601 l 0.180644,0.205561 q -0.211789,0.255393 -0.535703,0.392434 -0.317685,0.13704 -0.691431,0.13704 -0.485871,0 -0.865846,-0.21179 -0.379976,-0.21179 -0.597995,-0.585536 -0.21179,-0.373747 -0.21179,-0.853388 0,-0.473412 0.199332,-0.847159 0.20556,-0.379976 0.56062,-0.591765 0.355059,-0.21179 0.797326,-0.21179 0.442267,0 0.791097,0.21179 0.355059,0.20556 0.55439,0.579307 0.205561,0.373746 0.205561,0.847159 z m -1.544819,-1.451382 q -0.342601,0 -0.616682,0.155727 -0.274081,0.149499 -0.442267,0.429809 -0.161957,0.274081 -0.186873,0.622911 h 2.491644 q -0.01869,-0.34883 -0.186874,-0.622911 -0.168186,-0.274081 -0.442266,-0.429809 -0.274081,-0.155727 -0.616682,-0.155727 z m 2.470913,0.460954 q 0.1495,-0.35506 0.46719,-0.541933 0.31768,-0.193102 0.77241,-0.193102 v 0.305226 l -0.0748,-0.0062 q -0.54194,0 -0.84716,0.342601 -0.30523,0.336372 -0.30523,0.940596 v 1.694318 h -0.31145 V 46.01546 h 0.29899 z m 4.47046,0.990428 h -2.79687 q 0.0125,0.379976 0.1931,0.678973 0.18064,0.292768 0.48587,0.454725 0.31145,0.161957 0.69766,0.161957 0.31768,0 0.58554,-0.112124 0.27408,-0.118353 0.45472,-0.342601 l 0.18064,0.205561 q -0.21179,0.255393 -0.5357,0.392434 -0.31768,0.13704 -0.69143,0.13704 -0.48587,0 -0.86585,-0.21179 -0.37997,-0.21179 -0.59799,-0.585536 -0.21179,-0.373747 -0.21179,-0.853388 0,-0.473412 0.19933,-0.847159 0.20556,-0.379976 0.56062,-0.591765 0.35506,-0.21179 0.79733,-0.21179 0.44226,0 0.79109,0.21179 0.35506,0.20556 0.55439,0.579307 0.20557,0.373746 0.20557,0.847159 z m -1.54482,-1.451382 q -0.3426,0 -0.61668,0.155727 -0.27409,0.149499 -0.44227,0.429809 -0.16196,0.274081 -0.18688,0.622911 h 2.49165 q -0.0187,-0.34883 -0.18687,-0.622911 -0.16819,-0.274081 -0.44227,-0.429809 -0.27408,-0.155727 -0.61668,-0.155727 z m 5.06222,-1.619569 v 4.622 h -0.30522 v -0.766181 q -0.19311,0.379976 -0.54194,0.585536 -0.34883,0.205561 -0.79109,0.205561 -0.45473,0 -0.82225,-0.21179 -0.36751,-0.21179 -0.5793,-0.585536 -0.20556,-0.373747 -0.20556,-0.853388 0,-0.479642 0.20556,-0.853388 0.21179,-0.379976 0.5793,-0.585536 0.36752,-0.21179 0.82225,-0.21179 0.43603,0 0.77863,0.20556 0.34883,0.205561 0.54817,0.573078 v -2.124126 z m -1.61957,4.366606 q 0.37375,0 0.66652,-0.174415 0.299,-0.174415 0.46718,-0.485871 0.17442,-0.311455 0.17442,-0.710118 0,-0.398663 -0.17442,-0.710119 -0.16818,-0.311455 -0.46718,-0.48587 -0.29277,-0.174415 -0.66652,-0.174415 -0.37374,0 -0.67274,0.174415 -0.29277,0.174415 -0.46718,0.48587 -0.16819,0.311456 -0.16819,0.710119 0,0.398663 0.16819,0.710118 0.17441,0.311456 0.46718,0.485871 0.299,0.174415 0.67274,0.174415 z m 5.47753,-3.021118 q 0.45473,0 0.82224,0.21179 0.36752,0.20556 0.57308,0.585536 0.21179,0.373746 0.21179,0.853388 0,0.479641 -0.21179,0.853388 -0.20556,0.373746 -0.57308,0.585536 -0.36751,0.21179 -0.82224,0.21179 -0.43604,0 -0.7911,-0.205561 -0.34883,-0.211789 -0.54193,-0.585536 v 0.766181 h -0.299 v -4.622 h 0.31146 v 2.111668 q 0.1931,-0.361288 0.54193,-0.56062 0.34883,-0.20556 0.77864,-0.20556 z m -0.0187,3.021118 q 0.37375,0 0.67275,-0.174415 0.29899,-0.174415 0.46718,-0.485871 0.17442,-0.311455 0.17442,-0.710118 0,-0.398663 -0.17442,-0.710119 -0.16819,-0.311455 -0.46718,-0.48587 -0.299,-0.174415 -0.67275,-0.174415 -0.37374,0 -0.67274,0.174415 -0.29277,0.174415 -0.46718,0.48587 -0.16819,0.311456 -0.16819,0.710119 0,0.398663 0.16819,0.710118 0.17441,0.311456 0.46718,0.485871 0.299,0.174415 0.67274,0.174415 z m 4.76323,-2.996202 -1.6694,3.693862 q -0.18688,0.429809 -0.43604,0.610453 -0.24294,0.180644 -0.57931,0.180644 -0.22425,0 -0.42358,-0.07475 -0.1931,-0.07475 -0.33014,-0.218019 l 0.15573,-0.236706 q 0.24916,0.255393 0.60422,0.255393 0.23671,0 0.40489,-0.130811 0.16819,-0.130811 0.31146,-0.448496 l 0.17441,-0.392434 -1.46384,-3.239137 h 0.33015 l 1.30188,2.908994 1.30188,-2.908994 z"
       id="text2"
       aria-label="powered by" /><path
       d="m 100.80756,73.988625 -0.004,-2.085244 -1.033632,1.725719 h -0.260656 l -1.033634,-1.698755 v 2.05828 h -0.557263 v -3.145842 h 0.480864 l 1.249349,2.085243 1.226882,-2.085243 h 0.48086 l 0.004,3.145842 z m 2.265,-2.426793 q 0.5303,0 0.80893,0.256162 0.28313,0.251667 0.28313,0.76399 v 1.406641 h -0.5303 v -0.292114 q -0.10336,0.157292 -0.29661,0.242679 -0.18875,0.08089 -0.45839,0.08089 -0.26965,0 -0.47188,-0.08988 -0.20223,-0.09437 -0.31458,-0.256162 -0.10786,-0.16628 -0.10786,-0.373007 0,-0.323572 0.23818,-0.516817 0.24268,-0.197738 0.7595,-0.197738 h 0.62018 v -0.03595 q 0,-0.251667 -0.1528,-0.386489 -0.1483,-0.134822 -0.44491,-0.134822 -0.20223,0 -0.39997,0.06292 -0.19325,0.06292 -0.32807,0.175269 l -0.22021,-0.40896 q 0.18875,-0.14381 0.4539,-0.220209 0.26515,-0.0764 0.56176,-0.0764 z m -0.0764,2.049292 q 0.21122,0 0.37301,-0.09438 0.16628,-0.09887 0.23369,-0.278631 v -0.278632 h -0.57973 q -0.48536,0 -0.48536,0.319078 0,0.152798 0.12134,0.242679 0.12134,0.08988 0.33705,0.08988 z m 3.24921,-2.049292 q 0.4539,0 0.72804,0.26515 0.27413,0.265149 0.27413,0.78646 v 1.375183 h -0.56175 v -1.303278 q 0,-0.314584 -0.14831,-0.471876 -0.1483,-0.161786 -0.42244,-0.161786 -0.31009,0 -0.48985,0.18875 -0.17976,0.184257 -0.17976,0.534793 v 1.213397 h -0.56176 v -2.399828 h 0.53479 v 0.31009 q 0.13932,-0.166281 0.35054,-0.251668 0.21122,-0.08539 0.47637,-0.08539 z m 2.63352,0 q 0.5303,0 0.80893,0.256162 0.28312,0.251667 0.28312,0.76399 v 1.406641 h -0.5303 v -0.292114 q -0.10336,0.157292 -0.2966,0.242679 -0.18875,0.08089 -0.4584,0.08089 -0.26964,0 -0.47187,-0.08988 -0.20224,-0.09437 -0.31459,-0.256162 -0.10786,-0.16628 -0.10786,-0.373007 0,-0.323572 0.23819,-0.516817 0.24268,-0.197738 0.7595,-0.197738 h 0.62018 v -0.03595 q 0,-0.251667 -0.1528,-0.386489 -0.14831,-0.134822 -0.44491,-0.134822 -0.20224,0 -0.39998,0.06292 -0.19324,0.06292 -0.32806,0.175269 l -0.22021,-0.40896 q 0.18875,-0.14381 0.4539,-0.220209 0.26515,-0.0764 0.56176,-0.0764 z m -0.0764,2.049292 q 0.21122,0 0.373,-0.09438 0.16628,-0.09887 0.2337,-0.278631 v -0.278632 h -0.57974 q -0.48536,0 -0.48536,0.319078 0,0.152798 0.12134,0.242679 0.12134,0.08988 0.33706,0.08988 z m 4.29182,-2.022327 v 2.035809 q 0,1.267325 -1.29429,1.267325 -0.34604,0 -0.65613,-0.08988 -0.31009,-0.08539 -0.51232,-0.251667 l 0.25166,-0.422442 q 0.1573,0.130328 0.39548,0.206727 0.24268,0.08089 0.48985,0.08089 0.39548,0 0.57974,-0.179762 0.18426,-0.179763 0.18426,-0.548275 v -0.125834 q -0.14381,0.157292 -0.35054,0.238185 -0.20673,0.08089 -0.4539,0.08089 -0.34155,0 -0.62018,-0.14381 -0.27414,-0.148304 -0.43593,-0.413453 -0.15729,-0.26515 -0.15729,-0.606698 0,-0.341549 0.15729,-0.602204 0.16179,-0.26515 0.43593,-0.40896 0.27863,-0.14381 0.62018,-0.14381 0.26065,0 0.47187,0.08539 0.21572,0.08539 0.35953,0.260656 v -0.319078 z m -1.2808,1.8156 q 0.31907,0 0.52131,-0.188751 0.20672,-0.193244 0.20672,-0.49884 0,-0.301102 -0.20672,-0.489853 -0.20224,-0.18875 -0.52131,-0.18875 -0.32358,0 -0.5303,0.18875 -0.20224,0.188751 -0.20224,0.489853 0,0.305596 0.20224,0.49884 0.20672,0.188751 0.5303,0.188751 z m 4.27385,-0.602204 q 0,0.05842 -0.009,0.16628 h -1.88301 q 0.0494,0.265149 0.25616,0.422442 0.21122,0.152798 0.52131,0.152798 0.39548,0 0.65164,-0.260656 l 0.3011,0.346043 q -0.16178,0.193244 -0.40896,0.292114 -0.24717,0.09887 -0.55726,0.09887 -0.39548,0 -0.69658,-0.157292 -0.3011,-0.157292 -0.46738,-0.435924 -0.16179,-0.283126 -0.16179,-0.638156 0,-0.350537 0.15729,-0.629169 0.16179,-0.283126 0.44492,-0.440418 0.28312,-0.157292 0.63815,-0.157292 0.35054,0 0.62468,0.157292 0.27863,0.152798 0.43143,0.435924 0.15729,0.278632 0.15729,0.647145 z m -1.2134,-0.790955 q -0.26964,0 -0.45839,0.161786 -0.18426,0.157292 -0.22471,0.422442 h 1.36171 q -0.036,-0.260656 -0.22021,-0.422442 -0.18426,-0.161786 -0.4584,-0.161786 z m 2.28748,-0.07191 q 0.24268,-0.377501 0.85387,-0.377501 v 0.534793 q -0.0719,-0.01348 -0.13033,-0.01348 -0.32807,0 -0.51232,0.193245 -0.18426,0.18875 -0.18426,0.548275 v 1.163962 h -0.56176 v -2.399828 h 0.5348 z m 2.647,-1.285301 h 0.51681 v 4.20644 h -0.51681 z m 2.60205,0.188751 h 1.37518 q 0.50334,0 0.89432,0.197738 0.39098,0.193245 0.6067,0.55277 0.21571,0.35503 0.21571,0.822413 0,0.467382 -0.21571,0.826907 -0.21572,0.35503 -0.6067,0.552769 -0.39098,0.193245 -0.89432,0.193245 h -1.37518 z m 1.34822,2.651495 q 0.34604,0 0.6067,-0.130328 0.26515,-0.134822 0.40446,-0.377501 0.14381,-0.247173 0.14381,-0.570745 0,-0.323573 -0.14381,-0.566252 -0.13931,-0.247173 -0.40446,-0.377501 -0.26066,-0.134822 -0.6067,-0.134822 h -0.76399 v 2.157149 z m 4.56596,-0.692085 q 0,0.05842 -0.009,0.16628 h -1.88301 q 0.0494,0.265149 0.25616,0.422442 0.21123,0.152798 0.52132,0.152798 0.39547,0 0.65163,-0.260656 l 0.30111,0.346043 q -0.16179,0.193244 -0.40896,0.292114 -0.24718,0.09887 -0.55727,0.09887 -0.39547,0 -0.69658,-0.157292 -0.3011,-0.157292 -0.46738,-0.435924 -0.16178,-0.283126 -0.16178,-0.638156 0,-0.350537 0.15729,-0.629169 0.16178,-0.283126 0.44491,-0.440418 0.28313,-0.157292 0.63816,-0.157292 0.35053,0 0.62467,0.157292 0.27863,0.152798 0.43143,0.435924 0.15729,0.278632 0.15729,0.647145 z m -1.21339,-0.790955 q -0.26965,0 -0.4584,0.161786 -0.18425,0.157292 -0.2247,0.422442 h 1.3617 q -0.0359,-0.260656 -0.22021,-0.422442 -0.18426,-0.161786 -0.45839,-0.161786 z m 3.95477,-0.422441 -1.02914,2.399828 h -0.57974 l -1.02914,-2.399828 h 0.58423 l 0.74602,1.779647 0.76848,-1.779647 z m 0.91229,-0.251668 h -1.04262 v -0.494346 h 2.66947 v 0.494346 h -1.04262 v 2.651496 h -0.58423 z m 2.84473,2.682954 q -0.36401,0 -0.65613,-0.157292 -0.29211,-0.157292 -0.45839,-0.435924 -0.16179,-0.283126 -0.16179,-0.638156 0,-0.355031 0.16179,-0.633663 0.16628,-0.278632 0.45839,-0.435924 0.29212,-0.157292 0.65613,-0.157292 0.36852,0 0.66063,0.157292 0.29212,0.157292 0.4539,0.435924 0.16628,0.278632 0.16628,0.633663 0,0.35503 -0.16628,0.638156 -0.16178,0.278632 -0.4539,0.435924 -0.29211,0.157292 -0.66063,0.157292 z m 0,-0.480864 q 0.31009,0 0.51233,-0.206727 0.20223,-0.206727 0.20223,-0.543781 0,-0.337055 -0.20223,-0.543782 -0.20224,-0.206726 -0.51233,-0.206726 -0.31009,0 -0.51232,0.206726 -0.19774,0.206727 -0.19774,0.543782 0,0.337054 0.19774,0.543781 0.20223,0.206727 0.51232,0.206727 z m 2.89867,0.480864 q -0.36401,0 -0.65613,-0.157292 -0.29211,-0.157292 -0.45839,-0.435924 -0.16179,-0.283126 -0.16179,-0.638156 0,-0.355031 0.16179,-0.633663 0.16628,-0.278632 0.45839,-0.435924 0.29212,-0.157292 0.65613,-0.157292 0.36852,0 0.66063,0.157292 0.29212,0.157292 0.4539,0.435924 0.16628,0.278632 0.16628,0.633663 0,0.35503 -0.16628,0.638156 -0.16178,0.278632 -0.4539,0.435924 -0.29211,0.157292 -0.66063,0.157292 z m 0,-0.480864 q 0.3101,0 0.51233,-0.206727 0.20223,-0.206727 0.20223,-0.543781 0,-0.337055 -0.20223,-0.543782 -0.20223,-0.206726 -0.51233,-0.206726 -0.31009,0 -0.51232,0.206726 -0.19774,0.206727 -0.19774,0.543782 0,0.337054 0.19774,0.543781 0.20223,0.206727 0.51232,0.206727 z m 1.8201,-2.885187 h 0.56176 v 3.334593 h -0.56176 z m 2.0403,3.366051 q -0.29211,0 -0.57074,-0.0764 -0.27863,-0.0764 -0.44491,-0.193245 l 0.21571,-0.426935 q 0.16179,0.107857 0.38649,0.175268 0.2292,0.06292 0.44941,0.06292 0.50333,0 0.50333,-0.26515 0,-0.125833 -0.13033,-0.175268 -0.12583,-0.04943 -0.40896,-0.09437 -0.2966,-0.04494 -0.48536,-0.103364 -0.18425,-0.05842 -0.32357,-0.202232 -0.13482,-0.148304 -0.13482,-0.40896 0,-0.341548 0.28313,-0.543781 0.28762,-0.206727 0.77297,-0.206727 0.24718,0 0.49435,0.05842 0.24717,0.05393 0.40447,0.148304 l -0.21572,0.426936 Q 142.072,72.015732 141.69,72.015732 q -0.24717,0 -0.3775,0.0764 -0.12583,0.07191 -0.12583,0.193245 0,0.134822 0.13482,0.193244 0.13931,0.05393 0.42693,0.103364 0.28762,0.04494 0.47188,0.103363 0.18426,0.05842 0.31458,0.197739 0.13483,0.139316 0.13483,0.395477 0,0.337055 -0.29212,0.539287 -0.29211,0.202233 -0.79545,0.202233 z"
       id="text5"
       style="font-weight:600;font-size:4.49406px;font-family:Montserrat;-inkscape-font-specification:'Montserrat Semi-Bold';text-align:center;letter-spacing:0px;word-spacing:0px;text-anchor:middle;fill:#333333;stroke-width:0.235255;stroke-linecap:round;stroke-linejoin:round;paint-order:markers stroke fill"
       aria-label="Manager | DevTools" /><g
       id="g5"
       transform="matrix(0.59168617,0,0,0.59168617,34.911318,24.347967)"><path
         d="m 79.130406,44.758318 -0.213,1.009499 -0.15125,0.934248 -0.0998,0.865249 -0.048,0.804248 -0.003,0.742999 0.0445,0.692499 0.0825,0.638249 0.12375,0.591249 0.15475,0.555499 0.18575,0.515499 0.2165,0.48325 0.237,0.454499 0.26125,0.432499 0.2785,0.415 0.29575,0.399999 0.30575,0.389749 0.629,0.767999 0.6395,0.782499 0.31625,0.407499 0.306,0.425499 0.292,0.4475 0.282,0.475749 0.26125,0.501249 0.2405,0.540999 0.2165,0.576999 0.18925,0.623999 0.16149,0.670745 0.12375,0.72475 0.086,0.779 0.048,0.84375 0.007,0.862 -0.0275,0.82575 -0.0585,0.797 -0.0892,0.76075 -0.12375,0.73224 -0.15124,0.6995 -0.1825,0.66725 -0.2095,0.63825 -0.23725,0.6095 -0.2645,0.577 -0.29225,0.55175 -0.31275,0.51925 -0.34375,0.4905 -0.361,0.4615 -0.3885,0.43625 -0.409,0.40399 -0.42975,0.37875 -0.44675,0.35325 -0.471,0.3245 -0.488,0.2995 -0.502,0.274 -0.5225,0.24875 -0.53949,0.22 -0.55,0.1985 -0.56725,0.173 -0.58075,0.14775 -0.595,0.12625 -0.60125,0.101 -0.61525,0.0795 -0.62575,0.054 -0.636,0.0325 -0.6425,0.0108 -0.64299,-0.018 -0.6325,-0.0542 -0.6255,-0.09 -0.61525,-0.1225 -0.605,-0.155 -0.59475,-0.19125 -0.581,-0.22 -0.567,-0.2525 -0.557,-0.28125 -0.53975,-0.31 -0.5225,-0.3355 -0.50849,-0.368 -0.49175,-0.3895 -0.47425,-0.4145 -0.45375,-0.44374 -0.4365,-0.4615 -0.4125,-0.48675 -0.39525,-0.5085 -0.37125,-0.53 -0.35075,-0.552 -0.3265,-0.566 -0.3025,-0.588 -0.2785,-0.60225 -0.25075,-0.62 -0.2235,-0.635 -0.196,-0.65249 -0.17175,-0.66375 -0.1375,-0.67775 -0.1135,-0.68525 -0.079,-0.69975 -0.0482,-0.71025 -0.017,-0.72125 0.017,-0.7285 0.0482,-0.73925 0.0825,-0.746494 0.11675,-0.753749 0.148,-0.753749 0.1855,-0.760749 0.22,-0.757499 0.25775,-0.753498 0.29225,-0.749999 0.33,-0.742999 0.36425,-0.731999 0.40575,-0.721249 0.44325,-0.706998 0.48125,-0.688749 0.5225,-0.674249 0.5605,-0.652749 0.6015,-0.627499 0.6425,-0.605749 0.68424,-0.576999 0.72525,-0.551749 0.77,-0.51575 0.81125,-0.483249 0.856,-0.450749 0.9005,-0.411249 0.94525,-0.3675 0.98999,-0.328499 1.03475,-0.285 1.0825,-0.23425 1.1275,-0.190999 1.17575,-0.137 1.22375,-0.083 z"
         style="fill:#0093dd;fill-opacity:1;fill-rule:evenodd;stroke:none;stroke-width:0.343859"
         id="path1" /><path
         d="m 71.650676,52.381556 0.0757,1.024248 0.11999,0.941249 0.16175,0.861998 0.20275,0.785999 0.23375,0.717499 0.26825,0.656499 0.2955,0.591499 0.32325,0.537499 0.347,0.486749 0.368,0.44 0.3815,0.396499 0.39875,0.360749 0.409,0.3245 0.416,0.299245 0.4225,0.274 0.4265,0.2525 0.41925,0.24175 0.4195,0.227 0.4125,0.22375 0.40199,0.22 0.385,0.2235 0.375,0.23075 0.3505,0.24525 0.33,0.25975 0.3025,0.28125 0.27825,0.3065 0.244,0.33525 0.21,0.3715 0.17175,0.41125 0.1305,0.45425 0.0895,0.505 0.0413,0.55525 0.003,0.57349 -0.0175,0.55175 -0.0375,0.5265 -0.062,0.50825 -0.0825,0.487 -0.0998,0.46875 -0.12,0.4435 -0.14125,0.4255 -0.158,0.404 -0.17525,0.38575 -0.196,0.368 -0.20975,0.34625 -0.22675,0.3245 -0.24075,0.31 -0.2575,0.2885 -0.27175,0.27049 -0.28875,0.2525 -0.299,0.2345 -0.31274,0.21625 -0.32325,0.202 -0.33675,0.18025 -0.3475,0.166 -0.35725,0.14775 -0.36775,0.13 -0.37825,0.115 -0.38825,0.10125 -0.3955,0.083 -0.402,0.0685 -0.409,0.0505 -0.416,0.036 -0.42275,0.0215 -0.42625,0.007 -0.42975,-0.011 -0.42275,-0.036 -0.41599,-0.0613 -0.4125,-0.0795 -0.40225,-0.1045 -0.395,-0.12625 -0.385,-0.14775 -0.38175,-0.1695 -0.36775,-0.184 -0.361,-0.20925 -0.34725,-0.2235 -0.34,-0.245 -0.32675,-0.26 -0.31625,-0.27749 -0.3025,-0.29225 -0.28875,-0.31 -0.2785,-0.3245 -0.26125,-0.339 -0.2475,-0.3535 -0.2335,-0.36425 -0.21675,-0.3785 -0.2025,-0.3895 -0.18249,-0.404 -0.16825,-0.411 -0.15125,-0.4255 -0.13075,-0.43275 -0.1135,-0.44375 -0.0925,-0.45075 -0.0725,-0.458 -0.055,-0.465 -0.0308,-0.47249 -0.0105,-0.47975 0.007,-0.48325 0.0205,-0.483 0.038,-0.487 0.0515,-0.48675 0.0652,-0.487 0.079,-0.483 0.093,-0.487 0.11,-0.48325 0.12,-0.4795 0.13425,-0.47975 0.15125,-0.472495 0.16499,-0.472499 0.17525,-0.464999 0.1925,-0.458 0.20275,-0.454249 0.22,-0.447499 0.2305,-0.43975 0.2475,-0.436249 0.2575,-0.421999 0.27175,-0.41825 0.28525,-0.403999 0.29575,-0.396749 0.3125,-0.38575 0.32325,-0.374999 0.337,-0.364249 0.3505,-0.35 0.361,-0.334999 0.37475,-0.325 0.38825,-0.309999 0.39875,-0.292 0.4125,-0.281249 z"
         style="fill:#ffffff;fill-opacity:1;fill-rule:evenodd;stroke:none;stroke-width:0.343859"
         id="path2" /></g></g></svg>
