<?xml version="1.0" encoding="UTF-8" standalone="no"?>
<!-- Created with Inkscape (http://www.inkscape.org/) -->

<svg
   width="150"
   height="110"
   viewBox="0 0 39.6875 29.104167"
   version="1.1"
   id="svg1"
   inkscape:version="1.4 (86a8ad7, 2024-10-11)"
   sodipodi:docname="dpchart.svg"
   xmlns:inkscape="http://www.inkscape.org/namespaces/inkscape"
   xmlns:sodipodi="http://sodipodi.sourceforge.net/DTD/sodipodi-0.dtd"
   xmlns="http://www.w3.org/2000/svg"
   xmlns:svg="http://www.w3.org/2000/svg">
  <sodipodi:namedview
     id="namedview1"
     pagecolor="#ffffff"
     bordercolor="#000000"
     borderopacity="0.25"
     inkscape:showpageshadow="2"
     inkscape:pageopacity="0.0"
     inkscape:pagecheckerboard="0"
     inkscape:deskcolor="#d1d1d1"
     inkscape:document-units="mm"
     inkscape:zoom="2.0334082"
     inkscape:cx="157.61715"
     inkscape:cy="42.047633"
     inkscape:window-width="1920"
     inkscape:window-height="1009"
     inkscape:window-x="1912"
     inkscape:window-y="-8"
     inkscape:window-maximized="1"
     inkscape:current-layer="layer1" />
  <defs
     id="defs1" />
  <g
     inkscape:label="Layer 1"
     inkscape:groupmode="layer"
     id="layer1"
     transform="translate(-26.413986,-92.514015)">
    <path
       id="rect1"
       style="fill:#008000;stroke-width:0.0636761;paint-order:markers stroke fill"
       d="m 32.224874,98.309882 h 4.841031 v 9.828498 h -4.841031 z" />
    <path
       id="rect1-8"
       style="fill:#008000;stroke-width:0.0544234;paint-order:markers stroke fill"
       d="m 37.991291,100.95777 h 4.841031 v 7.17969 h -4.841031 z" />
    <path
       id="rect2"
       style="fill:#aa0000;stroke-width:0.0307232;paint-order:markers stroke fill"
       d="m 43.833913,112.41825 h 4.84103 v -2.28806 h -4.84103 z" />
    <path
       id="rect3"
       style="fill:#008000;stroke-width:0.0458173;paint-order:markers stroke fill"
       d="m 49.676534,103.04894 h 4.841031 v 5.08852 h -4.841031 z" />
    <path
       id="rect4"
       style="fill:#008000;stroke-width:0.0765917;paint-order:markers stroke fill"
       d="m 55.519155,93.917512 h 4.84103 v 14.219948 h -4.84103 z" />
    <path
       id="rect5"
       style="fill:#1a1a1a;stroke-width:0.126942;paint-order:markers stroke fill"
       d="m 28.886235,108.81396 h 34.221077 v 0.65375 H 28.886235 Z" />
    <path
       d="M 34.697458,119.39489 H 33.01204 v -0.56017 q -0.374037,0.64731 -1.234773,0.64731 -0.793139,0 -1.288849,-0.56846 -0.491205,-0.57261 -0.491205,-1.65973 0,-1.01658 0.495712,-1.61408 0.495711,-0.5975 1.311381,-0.5975 0.680477,0 1.122111,0.47716 v -1.78834 h 1.771041 z m -1.771041,-2.71366 q 0,-0.56845 -0.509231,-0.56845 -0.356012,0 -0.468673,0.36099 -0.108146,0.36099 -0.108146,0.8838 0,1.0249 0.567814,1.0249 0.216312,0 0.365025,-0.16184 0.15322,-0.16183 0.15322,-0.49377 z m 4.084779,4.0456 h -1.798079 v -5.55179 h 1.653874 v 0.59749 q 0.346997,-0.68464 1.293355,-0.68464 0.820178,0 1.284343,0.5892 0.464166,0.58506 0.464166,1.5975 0,1.01244 -0.477686,1.60994 -0.473178,0.5975 -1.252797,0.5975 -0.7661,0 -1.167176,-0.53941 z m 0,-2.87549 q 0,0.28215 0.139702,0.43983 0.139699,0.15351 0.346998,0.15351 0.324465,0 0.446139,-0.27383 0.121669,-0.278 0.121669,-0.85062 0,-0.65975 -0.139699,-0.92528 -0.139701,-0.26972 -0.419101,-0.26972 -0.16674,0 -0.33348,0.12035 -0.162233,0.12033 -0.162233,0.39417 z m 6.630936,-0.61825 1.725977,0.0954 q -0.121669,1.04148 -0.838204,1.5975 -0.712021,0.55601 -1.753014,0.55601 -1.252798,0 -2.023404,-0.76347 -0.770606,-0.76349 -0.770606,-2.10785 0,-1.33195 0.730048,-2.14936 0.730046,-0.81742 2.036922,-0.81742 1.221253,0 1.87469,0.6224 0.657945,0.62239 0.743568,1.65144 l -1.762029,0.0871 q 0,-0.56845 -0.238844,-0.82157 -0.234336,-0.2531 -0.554295,-0.2531 -0.89228,0 -0.89228,1.65141 0,0.92532 0.22983,1.25725 0.234337,0.33195 0.653438,0.33195 0.748073,0 0.838203,-0.93775 z m 6.423637,2.1618 h -1.793574 v -2.53938 q 0,-0.34855 -0.08562,-0.47718 -0.08111,-0.13276 -0.31996,-0.13276 -0.184764,0 -0.324465,0.10374 -0.135193,0.0995 -0.157727,0.20746 -0.02254,0.10792 -0.02254,0.45228 v 2.38586 h -1.798072 v -5.66382 h 1.798082 v 1.94187 q 0.486698,-0.58504 1.270824,-0.58504 0.396568,0 0.693995,0.12862 0.301934,0.12449 0.464165,0.32366 0.162234,0.19916 0.216312,0.38588 0.05857,0.18671 0.05857,0.72198 z m 5.139294,0 h -1.712459 q -0.06309,-0.26971 -0.06309,-0.58921 -0.486698,0.67635 -1.473615,0.67635 -0.811164,0 -1.216746,-0.38175 -0.401076,-0.38173 -0.401076,-0.8755 0,-0.66804 0.657945,-1.07882 0.66245,-0.41494 2.343362,-0.49793 v -0.0954 q 0,-0.278 -0.1397,-0.36929 -0.135194,-0.0912 -0.401075,-0.0912 -0.621893,0 -0.693997,0.46055 l -1.640354,-0.14107 q 0.351505,-1.32363 2.392934,-1.32363 0.554296,0 1.018462,0.10375 0.464167,0.0996 0.734554,0.31534 0.270388,0.21577 0.360518,0.45642 0.09464,0.24067 0.09464,0.9253 v 1.6846 q 0,0.48133 0.1397,0.82158 z m -1.865678,-1.97507 q -1.149149,0.11206 -1.149149,0.67633 0,0.38173 0.455154,0.38173 0.288414,0 0.491205,-0.15766 0.20279,-0.15769 0.20279,-0.69709 z m 3.949587,1.97507 h -1.721471 v -4.21985 h 1.496146 v 0.87135 q 0.256869,-0.95018 1.194216,-0.95018 0.09463,0 0.261373,0.0165 v 1.473 q -0.189272,-0.0415 -0.337984,-0.0415 -0.89228,0 -0.89228,0.917 z m 4.382207,-4.21985 v 1.07467 h -0.914812 v 1.556 q 0,0.31949 0.13069,0.38173 0.130691,0.0581 0.270388,0.0581 0.216312,0 0.513737,-0.0705 v 1.17841 q -0.531762,0.0954 -1.0455,0.0954 -0.829189,0 -1.221252,-0.32779 -0.387555,-0.32779 -0.387555,-1.04563 l 0.0045,-0.49377 v -1.33192 h -0.684983 v -1.07468 h 0.684983 l 0.02704,-1.37342 1.707951,-0.0249 v 1.39831 z"
       id="text5"
       style="font-size:6.97644px;font-family:'Franklin Gothic Heavy';-inkscape-font-specification:'Franklin Gothic Heavy, ';letter-spacing:-0.325568px;word-spacing:0.0348822px;fill:#666666;stroke-width:0.278928;paint-order:markers stroke fill"
       aria-label="dpChart" />
  </g>
</svg>
