<?xml version="1.0" encoding="UTF-8" standalone="no"?>
<!-- Created with Inkscape (http://www.inkscape.org/) -->

<svg
   width="150"
   height="110"
   viewBox="0 0 39.6875 29.104167"
   version="1.1"
   id="svg1"
   inkscape:version="1.4 (86a8ad7, 2024-10-11)"
   sodipodi:docname="dpchart.svg"
   xmlns:inkscape="http://www.inkscape.org/namespaces/inkscape"
   xmlns:sodipodi="http://sodipodi.sourceforge.net/DTD/sodipodi-0.dtd"
   xmlns="http://www.w3.org/2000/svg"
   xmlns:svg="http://www.w3.org/2000/svg">
  <sodipodi:namedview
     id="namedview1"
     pagecolor="#ffffff"
     bordercolor="#000000"
     borderopacity="0.25"
     inkscape:showpageshadow="2"
     inkscape:pageopacity="0.0"
     inkscape:pagecheckerboard="0"
     inkscape:deskcolor="#d1d1d1"
     inkscape:document-units="mm"
     inkscape:zoom="5.7513469"
     inkscape:cx="63.898076"
     inkscape:cy="65.810671"
     inkscape:window-width="1920"
     inkscape:window-height="1009"
     inkscape:window-x="1912"
     inkscape:window-y="-8"
     inkscape:window-maximized="1"
     inkscape:current-layer="layer1"
     showguides="true" />
  <defs
     id="defs1" />
  <g
     inkscape:label="Layer 1"
     inkscape:groupmode="layer"
     id="layer1"
     transform="translate(-26.413986,-92.514015)">
    <path
       id="rect1"
       style="fill:#008000;stroke-width:0.0636761;paint-order:markers stroke fill"
       d="m 32.224874,98.309882 h 4.841031 v 9.828498 h -4.841031 z" />
    <path
       id="rect1-8"
       style="fill:#008000;stroke-width:0.0544234;paint-order:markers stroke fill"
       d="m 37.991291,100.95777 h 4.841031 v 7.17969 h -4.841031 z" />
    <path
       id="rect2"
       style="fill:#aa0000;stroke-width:0.0307232;paint-order:markers stroke fill"
       d="m 43.833913,112.41825 h 4.84103 v -2.28806 h -4.84103 z" />
    <path
       id="rect3"
       style="fill:#008000;stroke-width:0.0458173;paint-order:markers stroke fill"
       d="m 49.676534,103.04894 h 4.841031 v 5.08852 h -4.841031 z" />
    <path
       id="rect4"
       style="fill:#008000;stroke-width:0.0765917;paint-order:markers stroke fill"
       d="m 55.519155,93.917512 h 4.84103 v 14.219948 h -4.84103 z" />
    <path
       id="rect5"
       style="fill:#1a1a1a;stroke-width:0.126942;paint-order:markers stroke fill"
       d="m 28.886235,108.81396 h 34.221077 v 0.65375 H 28.886235 Z" />
    <path
       d="m 43.642132,117.23309 1.725977,0.0954 c -0.08111,0.69432 -0.360514,1.22682 -0.838204,1.5975 -0.474681,0.37067 -1.059019,0.55601 -1.753014,0.55601 -0.835199,0 -1.509667,-0.25449 -2.023404,-0.76347 -0.513737,-0.50899 -0.770606,-1.21161 -0.770606,-2.10785 0,-0.88797 0.243349,-1.60442 0.730048,-2.14936 0.486697,-0.54495 1.165671,-0.81742 2.036922,-0.81742 0.814169,0 1.439065,0.20747 1.87469,0.6224 0.43863,0.41493 0.686486,0.96541 0.743568,1.65144 l -1.762029,0.0871 c 0,-0.37897 -0.07961,-0.65282 -0.238844,-0.82157 -0.156224,-0.16873 -0.340989,-0.2531 -0.554295,-0.2531 -0.594853,0 -0.89228,0.55047 -0.89228,1.65141 0,0.61688 0.07661,1.03596 0.22983,1.25725 0.156225,0.2213 0.374037,0.33195 0.653438,0.33195 0.498715,0 0.778116,-0.31258 0.838203,-0.93775 z m 6.423637,2.1618 h -1.793574 v -2.53938 c 0,-0.23237 -0.02854,-0.39143 -0.08562,-0.47718 -0.05407,-0.0885 -0.160727,-0.13276 -0.31996,-0.13276 -0.123176,0 -0.231331,0.0346 -0.324465,0.10374 -0.09013,0.0663 -0.142704,0.13549 -0.157727,0.20746 -0.01503,0.072 -0.02254,0.22271 -0.02254,0.45228 v 2.38586 h -1.798072 v -5.66382 h 1.798082 v 1.94187 c 0.324465,-0.39003 0.748073,-0.58504 1.270824,-0.58504 0.264379,0 0.49571,0.0429 0.693995,0.12862 0.201289,0.083 0.356011,0.19088 0.464165,0.32366 0.108156,0.13277 0.18026,0.2614 0.216312,0.38588 0.03905,0.12447 0.05857,0.36513 0.05857,0.72198 z m 5.139294,0 h -1.712459 c -0.04206,-0.17981 -0.06309,-0.37621 -0.06309,-0.58921 -0.324465,0.4509 -0.81567,0.67635 -1.473615,0.67635 -0.540776,0 -0.946358,-0.12725 -1.216746,-0.38175 -0.267384,-0.25449 -0.401076,-0.54632 -0.401076,-0.8755 0,-0.44536 0.219315,-0.80497 0.657945,-1.07882 0.441633,-0.27663 1.222754,-0.4426 2.343362,-0.49793 v -0.0954 c 0,-0.18533 -0.04657,-0.30843 -0.1397,-0.36929 -0.09013,-0.0608 -0.223821,-0.0912 -0.401075,-0.0912 -0.414595,0 -0.645928,0.15352 -0.693997,0.46055 l -1.640354,-0.14107 c 0.234337,-0.88242 1.031981,-1.32363 2.392934,-1.32363 0.369531,0 0.709018,0.0346 1.018462,0.10375 0.309445,0.0664 0.554296,0.17151 0.734554,0.31534 0.180259,0.14385 0.300431,0.29599 0.360518,0.45642 0.06309,0.16045 0.09464,0.46888 0.09464,0.9253 v 1.6846 c 0,0.32089 0.04657,0.59475 0.1397,0.82158 z m -1.865678,-1.97507 c -0.766099,0.0747 -1.149149,0.30015 -1.149149,0.67633 0,0.25449 0.151718,0.38173 0.455154,0.38173 0.192276,0 0.356011,-0.0525 0.491205,-0.15766 0.135193,-0.10513 0.20279,-0.33749 0.20279,-0.69709 z m 3.949587,1.97507 h -1.721471 v -4.21985 h 1.496146 v 0.87135 c 0.171246,-0.63345 0.569318,-0.95018 1.194216,-0.95018 0.06309,0 0.150211,0.005 0.261373,0.0165 v 1.473 c -0.126181,-0.0277 -0.238843,-0.0415 -0.337984,-0.0415 -0.594853,0 -0.89228,0.30567 -0.89228,0.917 z m 4.382207,-4.21985 v 1.07467 h -0.914812 v 1.556 c 0,0.21299 0.04356,0.34024 0.13069,0.38173 0.08713,0.0387 0.177257,0.0581 0.270388,0.0581 0.144208,0 0.315454,-0.0235 0.513737,-0.0705 v 1.17841 c -0.354508,0.0636 -0.703008,0.0954 -1.0455,0.0954 -0.552793,0 -0.959877,-0.10926 -1.221252,-0.32779 -0.25837,-0.21853 -0.387555,-0.56707 -0.387555,-1.04563 l 0.0045,-0.49377 v -1.33192 h -0.684983 v -1.07468 h 0.684983 l 0.02704,-1.37342 1.707951,-0.0249 v 1.39831 z"
       id="text5"
       style="font-size:6.97644px;font-family:'Franklin Gothic Heavy';-inkscape-font-specification:'Franklin Gothic Heavy, ';letter-spacing:-0.325568px;word-spacing:0.0348822px;fill:#666666;stroke-width:0.278928;paint-order:markers stroke fill"
       aria-label="dpChart"
       sodipodi:nodetypes="cccscscsccccsscsccccscsccscccccscsccccccscsccscsccscccsscccsscsccccccsccssccccscsccsccccccccccc" />
    <path
       d="m 34.567627,119.31096 h -1.685418 v -0.56017 c -0.249358,0.43154 -0.660949,0.64731 -1.234773,0.64731 -0.528759,0 -0.958376,-0.18949 -1.288849,-0.56846 -0.32747,-0.38174 -0.491205,-0.93498 -0.491205,-1.65973 0,-0.67772 0.165237,-1.21575 0.495712,-1.61408 0.330474,-0.39833 0.767601,-0.5975 1.311381,-0.5975 0.453651,0 0.827688,0.15905 1.122111,0.47716 v -1.78834 h 1.771041 z m -1.771041,-2.71366 c 0,-0.37897 -0.169744,-0.56845 -0.509231,-0.56845 -0.237341,0 -0.393566,0.12033 -0.468673,0.36099 -0.0721,0.24066 -0.108146,0.53526 -0.108146,0.8838 0,0.68327 0.189271,1.0249 0.567814,1.0249 0.144208,0 0.265883,-0.054 0.365025,-0.16184 0.102147,-0.10789 0.15322,-0.27248 0.15322,-0.49377 z m 4.084779,4.0456 h -1.798079 v -5.55179 h 1.653874 v 0.59749 c 0.231331,-0.45643 0.66245,-0.68464 1.293355,-0.68464 0.546785,0 0.9749,0.1964 1.284343,0.5892 0.309444,0.39004 0.464166,0.92254 0.464166,1.5975 0,0.67496 -0.159229,1.21161 -0.477686,1.60994 -0.315452,0.39833 -0.733051,0.5975 -1.252797,0.5975 -0.510733,0 -0.899792,-0.1798 -1.167176,-0.53941 z m 0,-2.87549 c 0,0.1881 0.04657,0.33471 0.139702,0.43983 0.09313,0.10234 0.208799,0.15351 0.346998,0.15351 0.21631,0 0.365023,-0.0913 0.446139,-0.27383 0.08111,-0.18533 0.121669,-0.46887 0.121669,-0.85062 0,-0.43983 -0.04657,-0.74826 -0.139699,-0.92528 -0.09313,-0.17981 -0.232834,-0.26972 -0.419101,-0.26972 -0.11116,0 -0.22232,0.0401 -0.33348,0.12035 -0.108155,0.0802 -0.162233,0.21161 -0.162233,0.39417 z"
       style="font-size:6.97644px;font-family:'Franklin Gothic Heavy';-inkscape-font-specification:'Franklin Gothic Heavy, ';letter-spacing:-0.325568px;word-spacing:0.0348822px;fill:#999999;stroke-width:0.278928;paint-order:markers stroke fill"
       id="path1" />
  </g>
</svg>
