<?xml version="1.0" encoding="UTF-8" standalone="no"?>
<!-- Created with Inkscape (http://www.inkscape.org/) -->

<svg
   width="960"
   height="250"
   viewBox="0 0 254.00001 66.145833"
   version="1.1"
   id="svg1"
   sodipodi:docname="logo.svg"
   inkscape:version="1.4 (86a8ad7, 2024-10-11)"
   xmlns:inkscape="http://www.inkscape.org/namespaces/inkscape"
   xmlns:sodipodi="http://sodipodi.sourceforge.net/DTD/sodipodi-0.dtd"
   xmlns="http://www.w3.org/2000/svg"
   xmlns:svg="http://www.w3.org/2000/svg">
  <sodipodi:namedview
     id="namedview1"
     pagecolor="#ffffff"
     bordercolor="#000000"
     borderopacity="0.25"
     inkscape:showpageshadow="2"
     inkscape:pageopacity="0.0"
     inkscape:pagecheckerboard="0"
     inkscape:deskcolor="#d1d1d1"
     inkscape:zoom="0.921875"
     inkscape:cx="498.98305"
     inkscape:cy="135.05085"
     inkscape:window-width="1920"
     inkscape:window-height="1009"
     inkscape:window-x="1912"
     inkscape:window-y="-8"
     inkscape:window-maximized="1"
     inkscape:current-layer="svg1" />
  <defs
     id="defs1" />
  <g
     id="g5"
     transform="matrix(0.71653159,0,0,0.71653159,167.42943,-32.660221)">
    <path
       id="rect1"
       style="fill:#008080;stroke-width:0.1;paint-order:markers stroke fill"
       d="m 37.907063,58.884758 h 48.947951 c 4.689435,0 8.464684,3.775249 8.464684,8.464684 V 99.36803 c 0,4.68943 -3.775249,8.46468 -8.464684,8.46468 H 37.907063 c -4.689435,0 -8.464684,-3.77525 -8.464684,-8.46468 V 67.349442 c 0,-4.689435 3.775249,-8.464684 8.464684,-8.464684 z" />
    <g
       id="g4"
       transform="translate(16.059167,-0.09974634)">
      <path
         id="rect3"
         style="fill:#ffffff;stroke-width:0.0790667;paint-order:markers stroke fill"
         transform="matrix(0.81591986,-0.57816501,0.42566331,0.90488162,0,0)"
         d="m 34.229571,94.324524 h 4.951763 c 0.32486,0 0.58639,0.298036 0.58639,0.668242 0,0.370207 -0.26153,0.668243 -0.58639,0.668243 h -4.951763 c -0.32486,0 -0.58639,-0.298036 -0.58639,-0.668243 0,-0.370206 0.26153,-0.668242 0.58639,-0.668242 z" />
      <path
         id="rect3-8"
         style="fill:#ffffff;stroke-width:0.0790667;paint-order:markers stroke fill"
         transform="matrix(-0.81591986,-0.57816501,0.42566331,-0.90488162,0,0)"
         d="m -95.251783,-12.892599 h 4.951763 c 0.32486,0 0.58639,0.298036 0.58639,0.668242 0,0.370207 -0.26153,0.668243 -0.58639,0.668243 h -4.951763 c -0.32486,0 -0.58639,-0.298036 -0.58639,-0.668243 0,-0.370206 0.26153,-0.668242 0.58639,-0.668242 z" />
    </g>
    <path
       id="rect4"
       style="fill:#ffffff;stroke-width:0.0836949;paint-order:markers stroke fill"
       d="m 77.569439,62.441235 h 3.457874 c 0.644694,0 1.163708,0.519013 1.163708,1.163707 v 2.161171 c 0,0.644694 -0.519014,1.163708 -1.163708,1.163708 h -3.457874 c -0.644694,0 -1.163708,-0.519014 -1.163708,-1.163708 v -2.161171 c 0,-0.644694 0.519014,-1.163707 1.163708,-1.163707 z" />
    <path
       id="rect4-5"
       style="fill:#ffffff;stroke-width:0.0483213;paint-order:markers stroke fill"
       d="m 69.198228,64.250656 h 5.009485 c 0.214898,0 0.387902,0.173005 0.387902,0.387903 v 0.72039 c 0,0.214898 -0.173004,0.387902 -0.387902,0.387902 h -5.009485 c -0.214898,0 -0.387902,-0.173004 -0.387902,-0.387902 v -0.72039 c 0,-0.214898 0.173004,-0.387903 0.387902,-0.387903 z" />
    <path
       id="rect5"
       style="fill:#ffffff;stroke-width:0.1;paint-order:markers stroke fill"
       d="m 38.801346,69.423477 h 46.880791 c 3.205052,0 5.785293,2.001909 5.785293,4.488584 v 27.131019 c 0,2.48668 -2.580241,4.48859 -5.785293,4.48859 H 38.801346 c -3.205053,0 -5.785294,-2.00191 -5.785294,-4.48859 V 73.912061 c 0,-2.486675 2.580241,-4.488584 5.785294,-4.488584 z" />
  </g>
  <path
     id="rect6"
     style="fill:#008080;stroke-width:0.0716532;paint-order:markers stroke fill"
     d="m 205.88353,21.11094 h 35.07275 c 3.36012,0 6.06521,2.705086 6.06521,6.065214 V 50.11849 c 0,3.360128 -2.70509,6.065218 -6.06521,6.065218 h -35.07275 c -3.36014,0 -6.06522,-2.70509 -6.06522,-6.065218 V 27.176154 c 0,-3.360128 2.70508,-6.065214 6.06522,-6.065214 z" />
  <g
     id="g8"
     transform="matrix(0.71653159,0,0,0.71653159,190.22881,-21.153322)">
    <path
       id="rect7"
       style="fill:#ffffff;stroke-width:0.0790667;paint-order:markers stroke fill"
       transform="matrix(0.81591986,-0.57816501,0.42566331,0.90488162,0,0)"
       d="m 34.229571,94.324524 h 4.951763 c 0.32486,0 0.58639,0.298036 0.58639,0.668242 0,0.370207 -0.26153,0.668243 -0.58639,0.668243 h -4.951763 c -0.32486,0 -0.58639,-0.298036 -0.58639,-0.668243 0,-0.370206 0.26153,-0.668242 0.58639,-0.668242 z" />
    <path
       id="rect8"
       style="fill:#ffffff;stroke-width:0.0790667;paint-order:markers stroke fill"
       transform="matrix(-0.81591986,-0.57816501,0.42566331,-0.90488162,0,0)"
       d="m -95.251783,-12.892599 h 4.951763 c 0.32486,0 0.58639,0.298036 0.58639,0.668242 0,0.370207 -0.26153,0.668243 -0.58639,0.668243 h -4.951763 c -0.32486,0 -0.58639,-0.298036 -0.58639,-0.668243 0,-0.370206 0.26153,-0.668242 0.58639,-0.668242 z" />
  </g>
  <path
     id="rect11"
     style="fill:#ffffff;stroke-width:0.0716532;paint-order:markers stroke fill"
     d="m 206.5243,28.662267 h 33.59158 c 2.29652,0 4.14534,1.43443 4.14534,3.216211 v 19.440238 c 0,1.781782 -1.84882,3.216212 -4.14534,3.216212 H 206.5243 c -2.29652,0 -4.14535,-1.43443 -4.14535,-3.216212 V 31.878478 c 0,-1.781781 1.84883,-3.216211 4.14535,-3.216211 z" />
  <path
     d="m 29.374824,35.235129 v 8.037045 H 8.1313047 V 10.524215 h 9.3009763 v 24.710914 z m 23.561581,8.037045 h -8.435253 q -0.310772,-1.559427 -0.310772,-3.406747 -2.397388,3.910562 -7.258758,3.910562 -3.995646,0 -5.993469,-2.207189 -1.975625,-2.207188 -1.975625,-5.062139 0,-3.862579 3.240913,-6.237706 3.263111,-2.399118 11.542978,-2.878942 v -0.551796 q 0,-1.607409 -0.688138,-2.135216 -0.665942,-0.527805 -1.975626,-0.527805 -3.063329,0 -3.418497,2.663021 l -8.080085,-0.815701 q 1.731446,-7.653186 11.787157,-7.653186 2.730358,0 5.016755,0.59978 2.286397,0.575788 3.61828,1.823329 1.331882,1.247541 1.775843,2.63903 0.466158,1.391488 0.466158,5.350033 v 9.740419 q 0,2.782977 0.688139,4.750253 z M 43.746419,31.852373 q -5.660499,0.647761 -5.660499,3.910562 0,2.207188 2.242002,2.207188 1.420674,0 2.419586,-0.911664 0.998911,-0.911666 0.998911,-4.030518 z m 31.464083,-12.979228 -8.857017,26.43828 q -1.021109,2.998896 -2.93014,4.678279 -1.909031,1.703374 -5.882479,1.703374 -0.954516,0 -4.439608,-0.215921 v -6.789503 q 1.731448,0.287894 3.196518,0.287894 3.818061,0 3.818061,-1.82333 0,-0.599779 -0.377366,-1.655392 L 51.636188,18.873145 h 9.478561 l 3.72927,13.003219 3.906854,-13.003219 z m 14.216202,15.642249 8.257672,0.599779 q -0.732538,3.598677 -3.751472,6.141742 -2.996733,2.519074 -8.124476,2.519074 -5.704895,0 -9.101194,-3.550695 -3.3963,-3.574685 -3.3963,-8.852745 0,-5.469989 3.351903,-9.236604 3.351904,-3.766615 8.945809,-3.766615 5.416318,0 8.746024,3.550694 3.351906,3.550696 3.351906,9.668446 0,0.503815 -0.02222,1.391488 H 82.567515 q 0.04439,2.303153 0.754734,3.430739 0.710336,1.103594 2.708157,1.103594 2.885749,0 3.396298,-2.998897 z m -0.577142,-6.333671 q -0.02222,-2.471091 -0.932325,-3.310783 -0.887914,-0.863683 -2.219799,-0.863683 -3.152121,0 -3.152121,4.174466 z M 107.52757,43.272174 H 99.047922 V 18.873145 h 7.369748 v 5.038148 q 1.26529,-5.49398 5.88248,-5.49398 0.46616,0 1.28749,0.09597 v 8.516869 q -0.93232,-0.239912 -1.66485,-0.239912 -4.39522,0 -4.39522,5.302051 z"
     id="path18"
     style="font-size:47.2621px;font-family:'Franklin Gothic Heavy';-inkscape-font-specification:'Franklin Gothic Heavy, ';letter-spacing:-2.20557px;word-spacing:0.236311px;fill:#4d4d4d;stroke-width:1.48858;paint-order:markers stroke fill" />
  <path
     style="font-size:47.2621px;font-family:'Franklin Gothic Heavy';-inkscape-font-specification:'Franklin Gothic Heavy, ';letter-spacing:-2.20557px;word-spacing:0.236311px;fill:#b3b3b3;stroke-width:1.48858;paint-order:markers stroke fill"
     d="m 124.00798,31.372549 v 11.899625 h -9.43417 V 10.524215 h 12.94146 q 4.83917,0 7.34755,1.199558 2.53057,1.199559 3.99565,3.670651 1.48726,2.471092 1.48726,5.541962 0,4.678281 -3.01893,7.557221 -3.01893,2.878942 -8.05788,2.878942 z m -0.13319,-7.029415 h 3.10773 q 4.10664,0 4.10664,-3.262801 0,-3.070871 -3.79587,-3.070871 h -3.4185 z m 25.98117,18.92904 h -8.47965 V 18.873145 h 7.36975 v 5.038148 q 1.26528,-5.49398 5.88248,-5.49398 0.46616,0 1.28748,0.09597 v 8.516869 q -0.93232,-0.239912 -1.66486,-0.239912 -4.3952,0 -4.3952,5.302051 z m 17.76788,0.503815 q -5.6161,0 -8.9236,-3.766615 -3.30751,-3.790607 -3.30751,-8.876737 0,-5.469988 3.44069,-9.116648 3.4629,-3.646659 8.99021,-3.646659 5.57171,0 8.94581,3.598677 3.3963,3.598677 3.3963,9.020683 0,5.469989 -3.4407,9.140639 -3.41849,3.64666 -9.1012,3.64666 z m 0.1332,-5.805866 q 2.06442,0 2.50837,-2.303153 0.46616,-2.327144 0.46616,-4.846217 0,-3.43074 -0.64374,-4.942184 -0.64375,-1.511444 -2.3086,-1.511444 -1.53166,0 -2.24199,1.559426 -0.71034,1.559427 -0.71034,5.134113 0,4.198456 0.73253,5.565953 0.73253,1.343506 2.19761,1.343506 z"
     id="path19" />
  <path
     d="m 74.666168,49.61319 -1.697101,6.758363 H 71.259952 L 69.490794,49.61319 h 1.769158 l 0.860554,3.683679 q 0.08809,0.326778 0.156109,0.643654 l 1.008658,-4.327333 z m 3.896249,6.758363 h -1.520993 q -0.05605,-0.321827 -0.05605,-0.703068 -0.432276,0.807042 -1.308852,0.807042 -0.720467,0 -1.080701,-0.455508 -0.356236,-0.455509 -0.356236,-1.044699 0,-0.79714 0.584378,-1.287308 0.588386,-0.495117 2.081362,-0.594141 v -0.11388 q 0,-0.331729 -0.124085,-0.440655 -0.120078,-0.108922 -0.356226,-0.108922 -0.552364,0 -0.6164,0.54958 l -1.456956,-0.16834 q 0.312208,-1.579426 2.125389,-1.579426 0.492315,0 0.904592,0.12378 0.412267,0.118825 0.652423,0.37629 0.240155,0.257461 0.320203,0.54463 0.08403,0.287167 0.08403,1.104113 v 2.010179 q 0,0.574337 0.124086,0.980334 z M 76.905334,54.01479 q -1.020661,0.133683 -1.020661,0.807042 0,0.455509 0.40426,0.455509 0.256168,0 0.436284,-0.188145 0.180117,-0.188145 0.180117,-0.831797 z m 5.953583,2.356763 h -1.597044 v -3.168756 q 0,-0.391144 -0.100053,-0.50007 -0.09603,-0.108922 -0.244164,-0.108922 -0.436283,0 -0.436283,0.75258 v 3.025171 h -1.597044 v -5.035351 h 1.480973 v 0.71297 q 0.32821,-0.816944 1.172764,-0.816944 0.444289,0 0.748482,0.2129 0.3082,0.20795 0.440291,0.54463 0.132082,0.331729 0.132082,1.158577 z m 2.055051,-6.971263 v 1.564573 H 83.316924 V 49.40029 Z m 0,1.935912 v 5.035351 h -1.597044 v -5.035351 z m 2.031023,-1.723012 v 6.758363 H 85.371965 V 49.61319 Z m 2.031024,0 v 6.758363 H 87.402989 V 49.61319 Z m 4.560683,6.758363 h -1.520992 q -0.05605,-0.321827 -0.05605,-0.703068 -0.432276,0.807042 -1.308854,0.807042 -0.720466,0 -1.0807,-0.455508 -0.356236,-0.455509 -0.356236,-1.044699 0,-0.79714 0.584388,-1.287308 0.588376,-0.495117 2.081353,-0.594141 v -0.11388 q 0,-0.331729 -0.124086,-0.440655 -0.120077,-0.108922 -0.356225,-0.108922 -0.552364,0 -0.616401,0.54958 l -1.456956,-0.16834 q 0.312208,-1.579426 2.12539,-1.579426 0.492314,0 0.904592,0.12378 0.412265,0.118825 0.652422,0.37629 0.240156,0.257461 0.320214,0.54463 0.08403,0.287167 0.08403,1.104113 v 2.010179 q 0,0.574337 0.124085,0.980334 z M 91.879617,54.01479 q -1.020662,0.133683 -1.020662,0.807042 0,0.455509 0.40426,0.455509 0.256168,0 0.436285,-0.188145 0.180117,-0.188145 0.180117,-0.831797 z m 4.751468,-4.4016 h 1.132733 v 8.446716 h -1.132733 z m 6.928895,0 v 4.258016 q 0,0.980333 -0.14409,1.495256 -0.14009,0.509973 -0.55237,0.811994 -0.41227,0.297071 -1.11673,0.297071 -0.62041,0 -1.12073,-0.163388 v -1.614086 q 0.35223,0.123779 0.65643,0.123779 0.36024,0 0.51233,-0.202998 0.1521,-0.207949 0.1521,-0.747628 V 49.61319 Z m 3.43597,6.793021 q -0.28019,0.06932 -0.55237,0.06932 -1.18077,0 -1.89724,-0.96548 -0.71646,-0.96548 -0.71646,-2.500346 0,-1.529915 0.69245,-2.5152 0.69645,-0.985285 1.92926,-0.985285 1.14076,0 1.85723,0.930821 0.72047,0.930823 0.72047,2.485494 0,1.8864 -0.98065,2.876635 0.0801,0.292121 0.50834,0.292121 0.19212,0 0.45229,-0.06437 v 1.529915 q -0.44429,0.05446 -0.69645,0.05446 -0.4483,0 -0.80053,-0.232706 -0.34822,-0.227754 -0.51634,-0.975382 z m -0.56838,-1.465549 q 0.42428,0 0.60842,-0.455509 0.18811,-0.460461 0.18811,-1.67845 0,-1.762621 -0.76451,-1.762621 -0.82454,0 -0.82454,2.01018 0,1.8864 0.79252,1.8864 z m 6.8302,-3.60446 v 5.035351 h -1.47698 v -0.826848 q -0.3242,0.930822 -1.26482,0.930822 -0.58038,0 -0.9006,-0.396094 -0.31621,-0.401046 -0.31621,-1.143723 v -3.599508 h 1.59706 v 3.168756 q 0,0.297071 0.064,0.42085 0.068,0.118826 0.26017,0.118826 0.20414,0 0.33223,-0.178242 0.12808,-0.183195 0.12808,-0.509973 v -3.02022 z m 3.14777,3.22817 1.48897,0.123779 q -0.13209,0.742677 -0.67644,1.267503 -0.54036,0.519873 -1.46496,0.519873 -1.02867,0 -1.64107,-0.732775 -0.6124,-0.737725 -0.6124,-1.826986 0,-1.128868 0.60439,-1.906204 0.6044,-0.777335 1.61305,-0.777335 0.97664,0 1.57703,0.732775 0.6044,0.732775 0.6044,1.995326 0,0.103977 -0.003,0.287168 h -2.72578 q 0.008,0.475314 0.13609,0.708019 0.12808,0.227754 0.48832,0.227754 0.52034,0 0.61239,-0.618897 z m -0.10409,-1.307112 q -0.003,-0.509972 -0.16812,-0.683263 -0.1601,-0.178243 -0.40025,-0.178243 -0.56838,0 -0.56838,0.861506 z m 3.36789,3.114293 h -1.52899 v -5.035351 h 1.32886 v 1.039747 q 0.22815,-1.13382 1.0607,-1.13382 0.084,0 0.23214,0.01981 v 1.757669 q -0.16811,-0.04951 -0.30019,-0.04951 -0.79252,0 -0.79252,1.094211 z m 5.17308,-5.035351 -1.59704,5.456201 q -0.18412,0.618897 -0.52835,0.96548 -0.34422,0.351535 -1.06069,0.351535 -0.17211,0 -0.80052,-0.04456 v -1.401184 q 0.3122,0.05942 0.57637,0.05942 0.68846,0 0.68846,-0.376288 0,-0.12378 -0.068,-0.341633 l -1.46096,-4.668963 h 1.70911 l 0.67243,2.68354 0.70448,-2.68354 z m 2.78619,-1.723012 h 1.13273 v 8.446716 h -1.13273 z m 9.27841,6.758363 h -1.86122 l -0.79651,-2.584517 h -0.52835 v 2.584517 h -1.67709 V 49.61319 h 2.85386 q 0.94461,0 1.46495,0.549581 0.52435,0.54463 0.52435,1.440795 0,0.584238 -0.19213,1.034796 -0.19213,0.445607 -0.7765,0.787238 z m -3.18608,-4.030262 h 0.71647 q 0.3162,0 0.50833,-0.163389 0.19213,-0.163389 0.19213,-0.480264 0,-0.648605 -0.64442,-0.648605 h -0.77251 z m 6.12169,2.223081 1.48898,0.123779 q -0.13209,0.742677 -0.67644,1.267503 -0.54035,0.519873 -1.46496,0.519873 -1.02866,0 -1.64107,-0.732775 -0.6124,-0.737725 -0.6124,-1.826986 0,-1.128868 0.6044,-1.906204 0.6044,-0.777335 1.61305,-0.777335 0.97664,0 1.57702,0.732775 0.6044,0.732775 0.6044,1.995326 0,0.103977 -0.003,0.287168 h -2.72578 q 0.008,0.475314 0.1361,0.708019 0.12808,0.227754 0.48831,0.227754 0.52034,0 0.61239,-0.618897 z m -0.1041,-1.307112 q -0.003,-0.509972 -0.1681,-0.683263 -0.16011,-0.178243 -0.40026,-0.178243 -0.56837,0 -0.56837,0.861506 z m 5.94158,3.114293 h -1.52099 q -0.056,-0.321827 -0.056,-0.703068 -0.43228,0.807042 -1.30886,0.807042 -0.72048,0 -1.08071,-0.455508 -0.35623,-0.455509 -0.35623,-1.044699 0,-0.79714 0.58439,-1.287308 0.58838,-0.495117 2.08136,-0.594141 v -0.11388 q 0,-0.331729 -0.12409,-0.440655 -0.12007,-0.108922 -0.35623,-0.108922 -0.55236,0 -0.6164,0.54958 l -1.45695,-0.16834 q 0.3122,-1.579426 2.12538,-1.579426 0.49232,0 0.90459,0.12378 0.41227,0.118825 0.65243,0.37629 0.24016,0.257461 0.3202,0.54463 0.084,0.287167 0.084,1.104113 v 2.010179 q 0,0.574337 0.12407,0.980334 z m -1.65707,-2.356763 q -1.02067,0.133683 -1.02067,0.807042 0,0.455509 0.40426,0.455509 0.25617,0 0.43628,-0.188145 0.18013,-0.188145 0.18013,-0.831797 z m 4.43258,0.326778 1.36089,0.143585 q -0.096,0.881309 -0.60039,1.435842 -0.50033,0.554532 -1.33287,0.554532 -0.93261,0 -1.51699,-0.722872 -0.58037,-0.727824 -0.58037,-1.861644 0,-1.158577 0.57636,-1.906205 0.58038,-0.752579 1.50499,-0.752579 0.82054,0 1.33688,0.569385 0.51633,0.564435 0.59237,1.430891 l -1.3969,0.143585 q -0.0881,-0.79714 -0.48832,-0.79714 -0.25617,0 -0.37624,0.292119 -0.11608,0.287169 -0.11608,1.00509 0,0.618898 0.11608,0.915969 0.12007,0.29707 0.41227,0.29707 0.42827,0 0.50832,-0.747628 z m 3.9643,-3.005366 v 1.282356 h -0.81253 v 1.856693 q 0,0.38124 0.11607,0.455507 0.11609,0.06932 0.24016,0.06932 0.19213,0 0.4563,-0.08417 v 1.406135 q -0.47231,0.11388 -0.92861,0.11388 -0.73647,0 -1.08471,-0.391143 -0.34422,-0.391144 -0.34422,-1.247698 l 0.003,-0.58919 v -1.589336 h -0.60839 V 51.3362 h 0.60839 l 0.024,-1.638841 1.51698,-0.02971 v 1.668548 z m 5.96024,5.035351 h -1.52098 q -0.056,-0.321827 -0.056,-0.703068 -0.43229,0.807042 -1.30886,0.807042 -0.72048,0 -1.08071,-0.455508 -0.35623,-0.455509 -0.35623,-1.044699 0,-0.79714 0.58437,-1.287308 0.58839,-0.495117 2.08137,-0.594141 v -0.11388 q 0,-0.331729 -0.12408,-0.440655 -0.12008,-0.108922 -0.35623,-0.108922 -0.55236,0 -0.61641,0.54958 l -1.45695,-0.16834 q 0.3122,-1.579426 2.12538,-1.579426 0.49233,0 0.90459,0.12378 0.41227,0.118825 0.65244,0.37629 0.24015,0.257461 0.3202,0.54463 0.084,0.287167 0.084,1.104113 v 2.010179 q 0,0.574337 0.12407,0.980334 z M 156.7231,54.01479 q -1.02068,0.133683 -1.02068,0.807042 0,0.455509 0.40427,0.455509 0.25616,0 0.43627,-0.188145 0.18014,-0.188145 0.18014,-0.831797 z m 5.95358,2.356763 h -1.59704 v -3.168756 q 0,-0.391144 -0.10004,-0.50007 -0.096,-0.108922 -0.24416,-0.108922 -0.43629,0 -0.43629,0.75258 v 3.025171 h -1.59704 v -5.035351 h 1.48096 v 0.71297 q 0.32822,-0.816944 1.17278,-0.816944 0.44428,0 0.74847,0.2129 0.30821,0.20795 0.4403,0.54463 0.13208,0.331729 0.13208,1.158577 z m 4.43259,0 h -1.49698 v -0.66841 q -0.33221,0.772384 -1.09671,0.772384 -0.70446,0 -1.14475,-0.678311 -0.43628,-0.683263 -0.43628,-1.980473 0,-1.213039 0.44028,-1.92601 0.44029,-0.712969 1.16476,-0.712969 0.6044,0 0.99665,0.569386 v -2.13396 h 1.57303 z m -1.57303,-3.238072 q 0,-0.678313 -0.45229,-0.678313 -0.31621,0 -0.41628,0.430754 -0.096,0.430752 -0.096,1.054601 0,1.222941 0.50433,1.222941 0.19213,0 0.32421,-0.193095 0.13608,-0.193097 0.13608,-0.589191 z m 9.90684,3.238072 h -1.54902 v -3.148951 q 0,-0.316876 -0.076,-0.440656 -0.072,-0.128731 -0.26017,-0.128731 -0.44829,0 -0.44829,0.807044 v 2.911294 h -1.533 v -3.148951 q 0,-0.604044 -0.37625,-0.604044 -0.38825,0 -0.38825,0.604044 v 3.148951 h -1.537 v -5.035351 h 1.43293 v 0.678311 q 0.38425,-0.782286 1.11674,-0.782286 0.7885,0 1.14474,0.782286 0.39625,-0.782286 1.21678,-0.782286 0.39226,0 0.68847,0.202999 0.30019,0.202998 0.43227,0.524824 0.13609,0.316876 0.13609,0.985286 z m 2.45129,0.103976 q -1.01266,0 -1.60904,-0.777335 -0.59639,-0.782287 -0.59639,-1.831936 0,-1.12887 0.6204,-1.88145 0.62441,-0.752578 1.62106,-0.752578 1.00466,0 1.61305,0.742676 0.6124,0.742677 0.6124,1.861645 0,1.128868 -0.6204,1.8864 -0.6164,0.752578 -1.64108,0.752578 z m 0.024,-1.198185 q 0.37224,0 0.45229,-0.475313 0.084,-0.480265 0.084,-1.000139 0,-0.708019 -0.11608,-1.019943 -0.11607,-0.311925 -0.41626,-0.311925 -0.27619,0 -0.40427,0.321828 -0.12808,0.321826 -0.12808,1.059552 0,0.866456 0.13208,1.148674 0.13209,0.277266 0.39627,0.277266 z m 4.00431,1.094211 h -1.52899 v -5.035351 h 1.32887 v 1.039748 q 0.22814,-1.13382 1.06069,-1.13382 0.084,0 0.23215,0.01981 v 1.757669 q -0.16811,-0.04952 -0.30019,-0.04952 -0.79253,0 -0.79253,1.094211 z m 3.90425,-1.807181 1.48898,0.123779 q -0.1321,0.742677 -0.67645,1.267503 -0.54035,0.519873 -1.46496,0.519873 -1.02866,0 -1.64106,-0.732774 -0.61241,-0.737726 -0.61241,-1.826986 0,-1.128869 0.6044,-1.906204 0.60439,-0.777335 1.61306,-0.777335 0.97663,0 1.57702,0.732774 0.6044,0.732775 0.6044,1.995326 0,0.103977 -0.003,0.287168 h -2.72578 q 0.008,0.475314 0.13609,0.708019 0.12808,0.227754 0.48831,0.227754 0.52035,0 0.6124,-0.618897 z m -0.1041,-1.307112 q -0.003,-0.509972 -0.1681,-0.683262 -0.16011,-0.178243 -0.40027,-0.178243 -0.56838,0 -0.56838,0.861505 z m 3.30786,1.307112 v 1.807181 h -1.52098 v -1.807183 z m 1.87093,0 v 1.807181 h -1.52099 v -1.807183 z m 1.87091,0 v 1.807181 h -1.52098 v -1.807183 z"
     id="text18"
     style="font-size:8.46783px;font-family:'Franklin Gothic Heavy';-inkscape-font-specification:'Franklin Gothic Heavy, ';letter-spacing:-0.395169px;word-spacing:0.0423395px;fill:#999999;stroke-width:0.287153;paint-order:markers stroke fill"
     aria-label="Vanilla | JQuery | React and more..." />
</svg>
