<?xml version="1.0" encoding="UTF-8" standalone="no"?>
<!-- Created with Inkscape (http://www.inkscape.org/) -->

<svg
   width="960"
   height="250"
   viewBox="0 0 254.00001 66.145833"
   version="1.1"
   id="svg1"
   xmlns="http://www.w3.org/2000/svg"
   xmlns:svg="http://www.w3.org/2000/svg">
  <defs
     id="defs1" />
  <g
     id="layer1"
     transform="translate(-10.373623,-47.080292)">
    <g
       id="g5"
       transform="matrix(0.71653159,0,0,0.71653159,177.80305,14.420071)">
      <path
         id="rect1"
         style="fill:#008080;stroke-width:0.1;paint-order:markers stroke fill"
         d="m 37.907063,58.884758 h 48.947951 c 4.689435,0 8.464684,3.775249 8.464684,8.464684 V 99.36803 c 0,4.68943 -3.775249,8.46468 -8.464684,8.46468 H 37.907063 c -4.689435,0 -8.464684,-3.77525 -8.464684,-8.46468 V 67.349442 c 0,-4.689435 3.775249,-8.464684 8.464684,-8.464684 z" />
      <g
         id="g4"
         transform="translate(16.059167,-0.09974634)">
        <path
           id="rect3"
           style="fill:#ffffff;stroke-width:0.0790667;paint-order:markers stroke fill"
           transform="matrix(0.81591986,-0.57816501,0.42566331,0.90488162,0,0)"
           d="m 34.229571,94.324524 h 4.951763 c 0.32486,0 0.58639,0.298036 0.58639,0.668242 0,0.370207 -0.26153,0.668243 -0.58639,0.668243 h -4.951763 c -0.32486,0 -0.58639,-0.298036 -0.58639,-0.668243 0,-0.370206 0.26153,-0.668242 0.58639,-0.668242 z" />
        <path
           id="rect3-8"
           style="fill:#ffffff;stroke-width:0.0790667;paint-order:markers stroke fill"
           transform="matrix(-0.81591986,-0.57816501,0.42566331,-0.90488162,0,0)"
           d="m -95.251783,-12.892599 h 4.951763 c 0.32486,0 0.58639,0.298036 0.58639,0.668242 0,0.370207 -0.26153,0.668243 -0.58639,0.668243 h -4.951763 c -0.32486,0 -0.58639,-0.298036 -0.58639,-0.668243 0,-0.370206 0.26153,-0.668242 0.58639,-0.668242 z" />
      </g>
      <path
         id="rect4"
         style="fill:#ffffff;stroke-width:0.0836949;paint-order:markers stroke fill"
         d="m 77.569439,62.441235 h 3.457874 c 0.644694,0 1.163708,0.519013 1.163708,1.163707 v 2.161171 c 0,0.644694 -0.519014,1.163708 -1.163708,1.163708 h -3.457874 c -0.644694,0 -1.163708,-0.519014 -1.163708,-1.163708 v -2.161171 c 0,-0.644694 0.519014,-1.163707 1.163708,-1.163707 z" />
      <path
         id="rect4-5"
         style="fill:#ffffff;stroke-width:0.0483213;paint-order:markers stroke fill"
         d="m 69.198228,64.250656 h 5.009485 c 0.214898,0 0.387902,0.173005 0.387902,0.387903 v 0.72039 c 0,0.214898 -0.173004,0.387902 -0.387902,0.387902 h -5.009485 c -0.214898,0 -0.387902,-0.173004 -0.387902,-0.387902 v -0.72039 c 0,-0.214898 0.173004,-0.387903 0.387902,-0.387903 z" />
      <path
         id="rect5"
         style="fill:#ffffff;stroke-width:0.1;paint-order:markers stroke fill"
         d="m 38.801346,69.423477 h 46.880791 c 3.205052,0 5.785293,2.001909 5.785293,4.488584 v 27.131019 c 0,2.48668 -2.580241,4.48859 -5.785293,4.48859 H 38.801346 c -3.205053,0 -5.785294,-2.00191 -5.785294,-4.48859 V 73.912061 c 0,-2.486675 2.580241,-4.488584 5.785294,-4.488584 z" />
    </g>
    <path
       id="rect6"
       style="fill:#008080;stroke-width:0.0716532;paint-order:markers stroke fill"
       d="m 216.25715,68.191232 h 35.07275 c 3.36012,0 6.06521,2.705086 6.06521,6.065214 v 22.942336 c 0,3.360128 -2.70509,6.065218 -6.06521,6.065218 h -35.07275 c -3.36014,0 -6.06522,-2.70509 -6.06522,-6.065218 V 74.256446 c 0,-3.360128 2.70508,-6.065214 6.06522,-6.065214 z" />
    <g
       id="g8"
       transform="matrix(0.71653159,0,0,0.71653159,200.60243,25.92697)">
      <path
         id="rect7"
         style="fill:#ffffff;stroke-width:0.0790667;paint-order:markers stroke fill"
         transform="matrix(0.81591986,-0.57816501,0.42566331,0.90488162,0,0)"
         d="m 34.229571,94.324524 h 4.951763 c 0.32486,0 0.58639,0.298036 0.58639,0.668242 0,0.370207 -0.26153,0.668243 -0.58639,0.668243 h -4.951763 c -0.32486,0 -0.58639,-0.298036 -0.58639,-0.668243 0,-0.370206 0.26153,-0.668242 0.58639,-0.668242 z" />
      <path
         id="rect8"
         style="fill:#ffffff;stroke-width:0.0790667;paint-order:markers stroke fill"
         transform="matrix(-0.81591986,-0.57816501,0.42566331,-0.90488162,0,0)"
         d="m -95.251783,-12.892599 h 4.951763 c 0.32486,0 0.58639,0.298036 0.58639,0.668242 0,0.370207 -0.26153,0.668243 -0.58639,0.668243 h -4.951763 c -0.32486,0 -0.58639,-0.298036 -0.58639,-0.668243 0,-0.370206 0.26153,-0.668242 0.58639,-0.668242 z" />
    </g>
    <path
       id="rect11"
       style="fill:#ffffff;stroke-width:0.0716532;paint-order:markers stroke fill"
       d="m 216.89792,75.742559 h 33.59158 c 2.29652,0 4.14534,1.43443 4.14534,3.216211 v 19.440238 c 0,1.781782 -1.84882,3.216212 -4.14534,3.216212 h -33.59158 c -2.29652,0 -4.14535,-1.43443 -4.14535,-3.216212 V 78.95877 c 0,-1.781781 1.84883,-3.216211 4.14535,-3.216211 z" />
    <g
       id="text16"
       style="font-size:47.2621px;font-family:'Franklin Gothic Heavy';-inkscape-font-specification:'Franklin Gothic Heavy, ';letter-spacing:-2.20557px;word-spacing:0.236311px;fill:#333333;stroke-width:1.48858;paint-order:markers stroke fill"
       transform="scale(0.96190342,1.0396054)"
       aria-label="LayerPro">
      <path
         d="m 41.322701,79.179486 v 7.730861 H 19.237823 V 55.409973 h 9.669345 v 23.769513 z m 24.494747,7.730861 h -8.769335 q -0.32308,-1.500018 -0.32308,-3.276962 -2.492338,3.761583 -7.546244,3.761583 -4.153896,0 -6.230843,-2.123102 -2.053871,-2.123102 -2.053871,-4.869289 0,-3.715428 3.369271,-6.000071 3.392348,-2.30772 12.000143,-2.769264 v -0.530775 q 0,-1.546172 -0.715393,-2.053871 -0.692316,-0.507698 -2.053871,-0.507698 -3.184653,0 -3.553888,2.561569 l -8.4001,-0.784625 q 1.800021,-7.361626 12.253992,-7.361626 2.838495,0 5.215446,0.57693 2.376951,0.553853 3.761583,1.753867 1.384632,1.200014 1.846176,2.538492 0.484621,1.338477 0.484621,5.146215 v 9.369342 q 0,2.676955 0.715393,4.569285 z M 56.263489,75.925601 q -5.884686,0.623084 -5.884686,3.761583 0,2.123102 2.330797,2.123102 1.476941,0 2.515415,-0.876933 1.038474,-0.876934 1.038474,-3.876969 z m 32.71023,-12.484764 -9.207802,25.431072 q -1.061551,2.884649 -3.04619,4.500053 -1.984639,1.638481 -6.115457,1.638481 -0.99232,0 -4.61544,-0.207695 v -6.530846 q 1.800022,0.276926 3.323117,0.276926 3.969277,0 3.969277,-1.753867 0,-0.57693 -0.392312,-1.592327 L 64.465735,63.440837 h 9.853963 l 3.87697,12.507841 4.061586,-12.507841 z m 14.779241,15.046333 8.58472,0.57693 q -0.76155,3.461579 -3.90005,5.907762 -3.11542,2.423106 -8.446249,2.423106 -5.93084,0 -9.461651,-3.415425 -3.530812,-3.438502 -3.530812,-8.515486 0,-5.261601 3.484657,-8.884721 3.484657,-3.62312 9.300111,-3.62312 5.630834,0 9.092414,3.415425 3.48466,3.415426 3.48466,9.300111 0,0.484621 -0.0231,1.338477 H 96.62211 q 0.04615,2.215411 0.784625,3.30004 0.73847,1.061551 2.815415,1.061551 3.00004,0 3.53081,-2.88465 z m -0.6,-6.09238 q -0.0231,-2.376951 -0.96925,-3.184653 -0.92308,-0.83078 -2.307715,-0.83078 -3.276962,0 -3.276962,4.015433 z m 19.41776,14.515557 h -8.81549 v -23.46951 h 7.66163 v 4.846212 q 1.3154,-5.284678 6.11546,-5.284678 0.48462,0 1.33848,0.09231 v 8.192405 q -0.96924,-0.230772 -1.73079,-0.230772 -4.56929,0 -4.56929,5.100061 z"
         id="path18" />
      <path
         style="fill:#b3b3b3"
         d="m 139.70384,75.464057 v 11.44629 h -9.80781 V 55.409973 h 13.45401 q 5.03083,0 7.63855,1.153859 2.6308,1.15386 4.1539,3.530812 1.54617,2.376951 1.54617,5.330832 0,4.500054 -3.1385,7.269317 -3.1385,2.769264 -8.37702,2.769264 z m -0.13846,-6.761619 h 3.23081 q 4.26928,0 4.26928,-3.138499 0,-2.953881 -3.9462,-2.953881 h -3.55389 z m 27.01016,18.207909 h -8.81549 v -23.46951 h 7.66163 v 4.846212 q 1.3154,-5.284678 6.11546,-5.284678 0.48462,0 1.33847,0.09231 v 8.192405 q -0.96924,-0.230772 -1.73079,-0.230772 -4.56928,0 -4.56928,5.100061 z m 18.47159,0.484621 q -5.83853,0 -9.27703,-3.62312 -3.4385,-3.646197 -3.4385,-8.538563 0,-5.261601 3.57696,-8.769335 3.60005,-3.507734 9.34627,-3.507734 5.79238,0 9.30011,3.46158 3.53081,3.461579 3.53081,8.677026 0,5.261601 -3.57697,8.792412 -3.55388,3.507734 -9.46165,3.507734 z m 0.13847,-5.584682 q 2.14618,0 2.60772,-2.215411 0.48462,-2.238488 0.48462,-4.661593 0,-3.30004 -0.66924,-4.753903 -0.66924,-1.453864 -2.40003,-1.453864 -1.59232,0 -2.33079,1.500018 -0.73847,1.500018 -0.73847,4.938521 0,4.038509 0.76154,5.353909 0.76155,1.292323 2.28465,1.292323 z"
         id="path19" />
    </g>
    <path
       d="m 104.7838,81.189677 -1.7531,5.643842 h -1.76551 l -1.827533,-5.643842 h 1.827533 l 0.88895,3.076204 q 0.091,0.272889 0.16126,0.537509 l 1.04194,-3.613713 z m 4.02481,5.643842 h -1.57118 q -0.0579,-0.268754 -0.0579,-0.587125 -0.44654,0.673953 -1.35204,0.673953 -0.74424,0 -1.11636,-0.38039 -0.36799,-0.380391 -0.36799,-0.872418 0,-0.665684 0.60366,-1.075018 0.6078,-0.413468 2.15004,-0.496162 v -0.0951 q 0,-0.277023 -0.12818,-0.367986 -0.12404,-0.09096 -0.36798,-0.09096 -0.57059,0 -0.63674,0.458949 l -1.50503,-0.140579 q 0.32251,-1.318963 2.19552,-1.318963 0.50856,0 0.93444,0.103367 0.42587,0.09923 0.67395,0.314236 0.24808,0.215003 0.33077,0.454815 0.0868,0.239811 0.0868,0.922034 v 1.678681 q 0,0.479623 0.12818,0.818667 z m -1.71176,-1.968109 q -1.05434,0.111637 -1.05434,0.673953 0,0.380391 0.4176,0.380391 0.26462,0 0.45068,-0.157118 0.18606,-0.157118 0.18606,-0.694626 z m 6.15003,1.968109 h -1.64974 v -2.646197 q 0,-0.32664 -0.10336,-0.417603 -0.0992,-0.09096 -0.25222,-0.09096 -0.45068,0 -0.45068,0.628472 v 2.526291 h -1.64974 v -4.204972 h 1.52984 v 0.595394 q 0.33904,-0.682222 1.21146,-0.682222 0.45895,0 0.77318,0.177791 0.31837,0.173657 0.45482,0.454815 0.13644,0.277024 0.13644,0.967516 z m 2.12286,-5.821633 v 1.30656 H 113.72 v -1.30656 z m 0,1.616661 v 4.204972 H 113.72 v -4.204972 z m 2.09804,-1.43887 v 5.643842 h -1.62493 v -5.643842 z m 2.09804,0 v 5.643842 h -1.62493 v -5.643842 z m 4.71117,5.643842 h -1.57118 q -0.0579,-0.268754 -0.0579,-0.587125 -0.44654,0.673953 -1.35204,0.673953 -0.74424,0 -1.11636,-0.38039 -0.36799,-0.380391 -0.36799,-0.872418 0,-0.665684 0.60367,-1.075018 0.60779,-0.413468 2.15003,-0.496162 v -0.0951 q 0,-0.277023 -0.12818,-0.367986 -0.12404,-0.09096 -0.36798,-0.09096 -0.57059,0 -0.63674,0.458949 l -1.50503,-0.140579 q 0.32251,-1.318963 2.19552,-1.318963 0.50856,0 0.93444,0.103367 0.42587,0.09923 0.67395,0.314236 0.24808,0.215003 0.33078,0.454815 0.0868,0.239811 0.0868,0.922034 v 1.678681 q 0,0.479623 0.12818,0.818667 z m -1.71176,-1.968109 q -1.05434,0.111637 -1.05434,0.673953 0,0.380391 0.4176,0.380391 0.26462,0 0.45068,-0.157118 0.18606,-0.157118 0.18606,-0.694626 z m 4.90825,-3.675733 h 1.17011 v 7.053769 h -1.17011 z m 7.15751,0 v 3.555827 q 0,0.818667 -0.14885,1.248674 -0.14471,0.425873 -0.57059,0.678088 -0.42587,0.248081 -1.15357,0.248081 -0.64088,0 -1.15771,-0.136444 v -1.347907 q 0.36385,0.103367 0.67808,0.103367 0.37213,0 0.52924,-0.169522 0.15712,-0.173656 0.15712,-0.624337 v -3.555827 z m 3.54932,5.672785 q -0.28943,0.05789 -0.57059,0.05789 -1.21973,0 -1.95984,-0.806263 -0.7401,-0.806263 -0.7401,-2.088014 0,-1.277617 0.7153,-2.100419 0.71943,-0.822802 1.99291,-0.822802 1.17839,0 1.9185,0.77732 0.74424,0.777321 0.74424,2.075611 0,1.575314 -1.013,2.40225 0.0827,0.243947 0.52511,0.243947 0.19846,0 0.46721,-0.05375 v 1.277617 q -0.45895,0.04548 -0.71943,0.04548 -0.46308,0 -0.82694,-0.19433 -0.35971,-0.190195 -0.53337,-0.814532 z m -0.58713,-1.223866 q 0.43828,0 0.62848,-0.380391 0.19433,-0.384526 0.19433,-1.401657 0,-1.471947 -0.78973,-1.471947 -0.85174,0 -0.85174,1.678681 0,1.575314 0.81866,1.575314 z m 7.05553,-3.010049 v 4.204972 h -1.5257 v -0.690492 q -0.3349,0.77732 -1.30655,0.77732 -0.59953,0 -0.93031,-0.330774 -0.32664,-0.33491 -0.32664,-0.955112 v -3.005914 h 1.64974 v 2.646197 q 0,0.248081 0.0661,0.351448 0.0703,0.09923 0.26876,0.09923 0.21087,0 0.34318,-0.148848 0.13231,-0.152984 0.13231,-0.425873 v -2.522156 z m 3.25163,2.695813 1.5381,0.103367 q -0.13645,0.620202 -0.69876,1.058479 -0.55819,0.434141 -1.5133,0.434141 -1.06261,0 -1.69522,-0.611933 -0.6326,-0.616067 -0.6326,-1.525698 0,-0.942707 0.62433,-1.591852 0.62434,-0.649145 1.66628,-0.649145 1.00886,0 1.62906,0.611933 0.62434,0.611933 0.62434,1.666277 0,0.08683 -0.004,0.239811 h -2.81572 q 0.008,0.39693 0.14058,0.59126 0.13231,0.190195 0.50443,0.190195 0.53751,0 0.63261,-0.516835 z m -0.10751,-1.091556 q -0.004,-0.425873 -0.17365,-0.570586 -0.16539,-0.148849 -0.41347,-0.148849 -0.58713,0 -0.58713,0.719435 z m 3.47903,2.600715 h -1.57945 v -4.204972 h 1.37272 v 0.868283 q 0.23567,-0.946842 1.09569,-0.946842 0.0868,0 0.23981,0.01654 v 1.467812 q -0.17366,-0.04135 -0.3101,-0.04135 -0.81867,0 -0.81867,0.913765 z m 5.34377,-4.204972 -1.64974,4.55642 q -0.19019,0.516835 -0.54578,0.806263 -0.35558,0.293563 -1.09569,0.293563 -0.17779,0 -0.82693,-0.03721 v -1.170115 q 0.3225,0.04962 0.59539,0.04962 0.71117,0 0.71117,-0.314235 0,-0.103367 -0.0703,-0.285294 l -1.50916,-3.899005 h 1.76551 l 0.69462,2.240998 0.72771,-2.240998 z m 2.87812,-1.43887 h 1.17011 v 7.053769 h -1.17011 z m 9.58457,5.643842 h -1.92263 l -0.8228,-2.158304 h -0.54578 v 2.158304 h -1.73243 v -5.643842 h 2.94803 q 0.97578,0 1.51329,0.45895 0.54165,0.454815 0.54165,1.203193 0,0.487892 -0.19847,0.864148 -0.19846,0.372122 -0.80213,0.657415 z m -3.29121,-3.365632 h 0.74011 q 0.32664,0 0.5251,-0.136444 0.19847,-0.136445 0.19847,-0.401064 0,-0.541644 -0.66568,-0.541644 h -0.798 z m 6.32369,1.856473 1.53811,0.103367 q -0.13645,0.620202 -0.69877,1.058479 -0.55818,0.434141 -1.51329,0.434141 -1.06261,0 -1.69522,-0.611933 -0.63261,-0.616067 -0.63261,-1.525698 0,-0.942707 0.62434,-1.591852 0.62434,-0.649145 1.66628,-0.649145 1.00886,0 1.62906,0.611933 0.62434,0.611933 0.62434,1.666277 0,0.08683 -0.004,0.239811 h -2.81572 q 0.008,0.39693 0.14058,0.59126 0.13231,0.190195 0.50443,0.190195 0.53751,0 0.6326,-0.516835 z m -0.1075,-1.091556 q -0.004,-0.425873 -0.17365,-0.570586 -0.16539,-0.148849 -0.41347,-0.148849 -0.58713,0 -0.58713,0.719435 z m 6.13763,2.600715 h -1.57118 q -0.0579,-0.268754 -0.0579,-0.587125 -0.44655,0.673953 -1.35204,0.673953 -0.74425,0 -1.11637,-0.38039 -0.36798,-0.380391 -0.36798,-0.872418 0,-0.665684 0.60366,-1.075018 0.6078,-0.413468 2.15004,-0.496162 v -0.0951 q 0,-0.277023 -0.12818,-0.367986 -0.12404,-0.09096 -0.36799,-0.09096 -0.57058,0 -0.63674,0.458949 l -1.50502,-0.140579 q 0.3225,-1.318963 2.19551,-1.318963 0.50857,0 0.93444,0.103367 0.42587,0.09923 0.67396,0.314236 0.24808,0.215003 0.33077,0.454815 0.0868,0.239811 0.0868,0.922034 v 1.678681 q 0,0.479623 0.12817,0.818667 z m -1.71175,-1.968109 q -1.05435,0.111637 -1.05435,0.673953 0,0.380391 0.4176,0.380391 0.26462,0 0.45068,-0.157118 0.18607,-0.157118 0.18607,-0.694626 z m 4.57884,0.272889 1.4058,0.119906 q -0.0992,0.735973 -0.62021,1.199058 -0.51683,0.463084 -1.37685,0.463084 -0.96338,0 -1.56704,-0.603663 -0.59953,-0.607799 -0.59953,-1.554641 0,-0.967516 0.59539,-1.591853 0.59953,-0.628471 1.55465,-0.628471 0.84761,0 1.38098,0.475488 0.53337,0.471354 0.61193,1.194923 l -1.443,0.119906 q -0.091,-0.665684 -0.50443,-0.665684 -0.26462,0 -0.38866,0.243946 -0.11991,0.239812 -0.11991,0.839341 0,0.516835 0.11991,0.764916 0.12404,0.248081 0.42587,0.248081 0.44241,0 0.5251,-0.624337 z m 4.09511,-2.509752 v 1.070883 h -0.83935 v 1.550506 q 0,0.31837 0.11991,0.38039 0.11991,0.05789 0.24808,0.05789 0.19847,0 0.47136,-0.07029 v 1.17425 q -0.4879,0.0951 -0.95925,0.0951 -0.76078,0 -1.1205,-0.32664 -0.35558,-0.32664 -0.35558,-1.04194 l 0.004,-0.492027 V 83.69943 h -0.62847 v -1.070883 h 0.62847 l 0.0248,-1.36858 1.56704,-0.02481 v 1.393388 z m 6.15691,4.204972 h -1.57118 q -0.0579,-0.268754 -0.0579,-0.587125 -0.44655,0.673953 -1.35204,0.673953 -0.74425,0 -1.11637,-0.38039 -0.36798,-0.380391 -0.36798,-0.872418 0,-0.665684 0.60366,-1.075018 0.6078,-0.413468 2.15004,-0.496162 v -0.0951 q 0,-0.277023 -0.12818,-0.367986 -0.12404,-0.09096 -0.36799,-0.09096 -0.57058,0 -0.63674,0.458949 l -1.50502,-0.140579 q 0.3225,-1.318963 2.19551,-1.318963 0.50857,0 0.93444,0.103367 0.42587,0.09923 0.67396,0.314236 0.24808,0.215003 0.33077,0.454815 0.0868,0.239811 0.0868,0.922034 v 1.678681 q 0,0.479623 0.12817,0.818667 z m -1.71175,-1.968109 q -1.05435,0.111637 -1.05435,0.673953 0,0.380391 0.4176,0.380391 0.26462,0 0.45068,-0.157118 0.18607,-0.157118 0.18607,-0.694626 z m 6.15003,1.968109 h -1.64974 v -2.646197 q 0,-0.32664 -0.10336,-0.417603 -0.0992,-0.09096 -0.25222,-0.09096 -0.45068,0 -0.45068,0.628472 v 2.526291 h -1.64974 v -4.204972 h 1.52983 v 0.595394 q 0.33905,-0.682222 1.21147,-0.682222 0.45895,0 0.77318,0.177791 0.31837,0.173657 0.45482,0.454815 0.13644,0.277024 0.13644,0.967516 z m 4.57885,0 h -1.54637 v -0.558182 q -0.34318,0.64501 -1.1329,0.64501 -0.72771,0 -1.18252,-0.566451 -0.45068,-0.570586 -0.45068,-1.653873 0,-1.012997 0.45481,-1.608392 0.45482,-0.595394 1.20319,-0.595394 0.62434,0 1.02954,0.475489 v -1.782049 h 1.62493 z m -1.62493,-2.704082 q 0,-0.566452 -0.46722,-0.566452 -0.32664,0 -0.43001,0.359718 -0.0992,0.359717 -0.0992,0.880687 0,1.021266 0.52097,1.021266 0.19847,0 0.33491,-0.161252 0.14058,-0.161253 0.14058,-0.492027 z m 10.23372,2.704082 h -1.60012 v -2.629658 q 0,-0.26462 -0.0786,-0.367987 -0.0744,-0.107502 -0.26875,-0.107502 -0.46309,0 -0.46309,0.673954 v 2.431193 h -1.58358 v -2.629658 q 0,-0.504431 -0.38866,-0.504431 -0.40106,0 -0.40106,0.504431 v 2.629658 h -1.58772 v -4.204972 h 1.48021 v 0.566451 q 0.39693,-0.653279 1.15358,-0.653279 0.81453,0 1.18252,0.653279 0.40933,-0.653279 1.25694,-0.653279 0.4052,0 0.71117,0.169522 0.3101,0.169522 0.44654,0.438276 0.14058,0.26462 0.14058,0.822802 z m 2.53219,0.08683 q -1.04608,0 -1.66214,-0.649145 -0.61607,-0.65328 -0.61607,-1.529832 0,-0.942708 0.64087,-1.57118 0.64501,-0.628471 1.67455,-0.628471 1.03781,0 1.66628,0.620202 0.6326,0.620202 0.6326,1.554641 0,0.942707 -0.64087,1.575314 -0.63674,0.628471 -1.69522,0.628471 z m 0.0248,-1.000593 q 0.38452,0 0.46722,-0.396929 0.0868,-0.401065 0.0868,-0.835206 0,-0.59126 -0.1199,-0.851745 -0.11991,-0.260485 -0.43001,-0.260485 -0.28529,0 -0.4176,0.268755 -0.13231,0.268754 -0.13231,0.884822 0,0.723569 0.13644,0.959246 0.13645,0.231542 0.40934,0.231542 z m 4.13644,0.913765 h -1.57945 v -4.204972 h 1.37272 v 0.868283 q 0.23567,-0.946842 1.09569,-0.946842 0.0868,0 0.23981,0.01654 v 1.467812 q -0.17366,-0.04135 -0.3101,-0.04135 -0.81867,0 -0.81867,0.913765 z m 4.03307,-1.509159 1.53811,0.103367 q -0.13645,0.620202 -0.69877,1.058479 -0.55818,0.434141 -1.51329,0.434141 -1.06261,0 -1.69522,-0.611933 -0.63261,-0.616067 -0.63261,-1.525698 0,-0.942707 0.62434,-1.591852 0.62434,-0.649145 1.66628,-0.649145 1.00886,0 1.62906,0.611933 0.62434,0.611933 0.62434,1.666277 0,0.08683 -0.004,0.239811 h -2.81572 q 0.008,0.39693 0.14058,0.59126 0.13231,0.190195 0.50443,0.190195 0.53751,0 0.6326,-0.516835 z m -0.1075,-1.091556 q -0.004,-0.425873 -0.17365,-0.570586 -0.16539,-0.148849 -0.41347,-0.148849 -0.58713,0 -0.58713,0.719435 z m 3.41701,1.091556 v 1.509159 H 221.3508 V 85.32436 Z m 1.93266,0 v 1.509159 h -1.57118 V 85.32436 Z m 1.93265,0 v 1.509159 h -1.57118 V 85.32436 Z"
       id="text18"
       style="font-size:8.46783px;font-family:'Franklin Gothic Heavy';-inkscape-font-specification:'Franklin Gothic Heavy, ';letter-spacing:-0.395169px;word-spacing:0.0423395px;fill:#999999;stroke-width:0.266704;paint-order:markers stroke fill"
       transform="scale(0.83509016,1.1974755)"
       aria-label="Vanilla | JQuery | React and more..." />
  </g>
</svg>
